<svg width="1680" height="747" viewBox="0 0 1680 747" fill="none" xmlns="http://www.w3.org/2000/svg">
<g clip-path="url(#clip0_4_118)">
<rect width="1680" height="747" fill="white"/>
<path fill-rule="evenodd" clip-rule="evenodd" d="M1854.99 638.134C1838.72 629.2 1824.43 615.293 1821.93 592.815C1820.37 578.827 1824.64 567.096 1830.41 557.521C1835.34 549.354 1841.92 541.96 1847.26 535.947C1847.88 535.249 1848.49 534.57 1849.07 533.911C1855.27 526.887 1859.34 521.833 1861.44 517.082C1863.12 513.302 1863.45 510.045 1861.51 505.554C1857.83 496.977 1851.51 494.25 1835.35 492.053C1833.69 491.828 1831.91 491.613 1830.01 491.386C1815.65 489.664 1795.16 487.207 1778.8 473.642C1753.19 452.395 1750.24 423.582 1755.51 396.16C1760.22 371.646 1772.02 345.251 1782.66 321.439C1783.56 319.409 1784.46 317.398 1785.35 315.409C1797.26 288.634 1806.52 266.161 1807.46 248.439C1807.91 240.137 1806.41 234.127 1803.4 229.523C1800.39 224.931 1794.74 220.011 1783.65 215.999C1766.16 209.672 1753.58 209.152 1744.39 211.369C1735.43 213.531 1728.02 218.696 1721.46 227.05C1707.47 244.856 1699.3 274.308 1691.71 308.907C1690.57 314.116 1689.44 319.447 1688.3 324.838C1682.27 353.269 1675.9 383.352 1665.4 405.933C1659.02 419.656 1650.33 432.507 1637.59 440.735C1624.29 449.323 1608.48 451.669 1590.67 447.695C1569.95 443.07 1555.21 429.668 1544.14 415.176C1534.75 402.878 1527 388.373 1520.24 375.74C1520.24 375.734 1520.24 375.728 1520.23 375.722C1519.17 373.731 1518.13 371.786 1517.11 369.904C1509.04 354.968 1502.62 344.517 1495.86 338.835C1492.86 336.312 1490.37 335.269 1488.12 334.959C1485.86 334.649 1482.41 334.878 1477.16 337.286C1468.34 341.332 1464.29 345.638 1462.31 349.288C1460.32 352.963 1459.44 357.804 1460.35 364.739C1462.32 379.701 1471.64 398.49 1484.01 421.748C1484.91 423.432 1485.82 425.136 1486.74 426.858C1486.75 426.887 1486.77 426.915 1486.78 426.944C1497.86 447.675 1510.31 470.997 1517.03 493.857C1524.45 519.056 1525.79 546.669 1508.66 571.45C1497.25 587.973 1481.32 597.109 1465.33 602.808C1452.02 607.554 1437.53 610.262 1424.85 612.631C1422.71 613.032 1420.61 613.422 1418.59 613.812C1403.61 616.691 1392.26 619.485 1384.1 624.286C1377.09 628.405 1372.42 633.977 1370.89 644.57C1369.89 651.479 1370.7 655.895 1371.96 658.841C1373.19 661.747 1375.37 664.425 1379.11 667.041C1387.41 672.834 1400.76 676.646 1419.24 680.614C1422.46 681.307 1425.83 682.002 1429.3 682.717C1444.36 685.827 1461.29 689.322 1476.8 694.726C1496.14 701.46 1515.59 711.866 1528.9 730.45C1551.86 762.517 1550.18 797.758 1539.25 830.833C1529.05 861.712 1510 893.088 1492.67 921.639C1491.78 923.112 1490.89 924.576 1490.01 926.033C1471.29 956.919 1455.62 983.726 1450.49 1006.71C1448.02 1017.76 1448.3 1026.76 1451.09 1034.3C1453.83 1041.69 1459.59 1049.34 1471.12 1056.73C1482.76 1064.19 1492.23 1066.38 1500.17 1065.92C1508.22 1065.46 1516.44 1062.18 1525.34 1055.67C1543.91 1042.08 1561.59 1017.47 1581.79 988.05C1583.07 986.188 1584.36 984.31 1585.65 982.419C1604.07 955.547 1624.31 926.004 1647.73 903.761C1673.18 879.601 1704.34 862.155 1743.24 866.611C1763.5 868.933 1780.09 879.51 1793.67 891.369C1804.48 900.803 1814.52 912.118 1823.4 922.123L1823.4 922.127C1825.52 924.515 1827.57 926.829 1829.55 929.025C1840.64 941.318 1849.23 949.593 1857.03 953.324C1860.52 954.992 1863.29 955.451 1865.75 955.214C1868.22 954.975 1871.66 953.909 1876.27 950.495C1880.97 947.011 1882.88 943.909 1883.72 941.406C1884.61 938.789 1884.84 935.347 1883.76 930.483C1881.43 919.948 1874.14 907.159 1863.94 890.947C1862.68 888.948 1861.38 886.905 1860.06 884.821C1851.32 871.052 1841.48 855.55 1834.68 839.936C1826.79 821.805 1821.79 800.933 1828.56 779.719C1835.49 758.004 1851.76 745.702 1869.03 738.209C1884.54 731.482 1902.63 727.891 1918.2 724.799C1919.43 724.555 1920.64 724.315 1921.83 724.076C1939.46 720.551 1952.72 717.468 1961.38 712.306C1965.31 709.961 1967.46 707.64 1968.65 705.36C1969.81 703.151 1970.77 699.692 1970.11 693.84C1969.11 684.905 1964 678.328 1952.92 672.247C1941.2 665.813 1925.53 661.483 1907.37 656.568L1906.33 656.288C1889.45 651.723 1870.3 646.543 1854.99 638.134ZM1967.88 645.068C1984.16 654 1998.45 667.902 2000.96 690.376C2002.17 701.153 2000.71 711.056 1996.15 719.749C1991.62 728.372 1984.73 734.492 1977.27 738.934C1963.15 747.346 1944.22 751.22 1927.91 754.482C1926.99 754.666 1926.07 754.85 1925.15 755.032C1908.65 758.324 1893.7 761.307 1881.38 766.651C1868.92 772.056 1861.39 778.93 1858.14 789.12C1854.67 800.004 1856.59 812.474 1863.16 827.557C1868.91 840.783 1877.3 854.024 1886.16 867.998C1887.5 870.124 1888.86 872.267 1890.22 874.43C1899.9 889.802 1910.38 907.097 1914.07 923.771C1916.01 932.513 1916.31 941.957 1913.13 951.337C1909.91 960.831 1903.61 968.836 1894.75 975.396C1886.57 981.458 1877.89 985.195 1868.71 986.08C1859.51 986.966 1851.08 984.869 1843.6 981.292C1829.48 974.534 1817.11 961.566 1806.49 949.794C1804.12 947.174 1801.81 944.569 1799.52 941.996C1790.75 932.127 1782.4 922.726 1773.24 914.725C1761.87 904.808 1751.04 898.72 1739.68 897.418C1713.38 894.405 1690.91 905.534 1669.11 926.229C1648.17 946.114 1629.69 973.065 1610.72 1000.72C1609.61 1002.34 1608.5 1003.96 1607.39 1005.58C1588 1033.81 1567.35 1063.36 1543.68 1080.68C1531.46 1089.62 1517.59 1095.98 1501.93 1096.88C1486.15 1097.79 1470.29 1093.05 1454.34 1082.83C1438.34 1072.58 1427.5 1060 1421.98 1045.08C1416.51 1030.31 1416.86 1014.9 1420.19 999.979C1426.66 971.018 1445.52 939.578 1463.45 909.985C1464.09 908.934 1464.73 907.884 1465.36 906.836C1483.34 877.189 1500.71 848.558 1509.77 821.131C1518.95 793.337 1518.71 769.55 1503.64 748.5C1495.62 737.296 1483.01 729.734 1466.56 724.006C1453.18 719.344 1438.79 716.365 1423.87 713.274C1420.17 712.509 1416.45 711.737 1412.69 710.931C1395 707.132 1375.51 702.367 1361.32 692.462C1353.82 687.228 1347.34 680.275 1343.38 670.981C1339.45 661.726 1338.54 651.372 1340.17 640.151C1343.14 619.616 1353.79 606.136 1368.36 597.568C1381.76 589.681 1398.23 586.152 1412.74 583.362C1415.05 582.916 1417.34 582.487 1419.59 582.065C1432.38 579.659 1444.11 577.454 1454.91 573.603C1467.19 569.227 1476.64 563.228 1483.12 553.846C1492.76 539.891 1493.32 523.259 1487.25 502.615C1481.47 482.959 1470.5 462.383 1459.04 440.904C1458.23 439.379 1457.41 437.85 1456.6 436.317C1444.96 414.449 1432.42 390.428 1429.57 368.807C1428.08 357.45 1429.04 345.557 1435.01 334.543C1440.99 323.503 1451.01 315.166 1464.23 309.105C1473.63 304.792 1483.07 302.958 1492.38 304.24C1501.69 305.522 1509.46 309.726 1515.85 315.098C1527.89 325.208 1536.86 341.146 1544.43 355.157C1545.56 357.257 1546.68 359.341 1547.79 361.404C1554.65 374.201 1561.09 386.216 1568.83 396.361C1577.64 407.893 1586.72 415.034 1597.46 417.431C1608.47 419.889 1615.51 418.081 1620.75 414.697C1626.54 410.953 1632.08 404.011 1637.25 392.887C1646.11 373.815 1651.6 348.042 1657.69 319.478C1658.89 313.847 1660.11 308.107 1661.39 302.289C1668.72 268.873 1677.96 232.209 1697.04 207.916C1707.02 195.22 1720.07 185.34 1737.12 181.226C1753.95 177.167 1772.94 179.14 1794.23 186.841C1809.84 192.486 1821.77 200.915 1829.38 212.541C1836.99 224.156 1839.15 237.235 1838.46 250.072C1837.15 274.629 1825 302.636 1813.72 327.987C1812.94 329.729 1812.17 331.462 1811.4 333.188C1800.33 358.016 1790 381.181 1786 401.988C1781.88 423.423 1785.11 438.555 1798.65 449.781C1807.53 457.146 1818.32 458.551 1833.63 460.543C1835.53 460.791 1837.51 461.048 1839.56 461.327C1856.15 463.583 1879.11 467.896 1890.04 493.298C1895.77 506.619 1894.58 518.909 1889.82 529.633C1885.5 539.388 1878.19 547.798 1872.34 554.42C1871.77 555.071 1871.2 555.709 1870.65 556.335C1864.98 562.737 1860.36 567.945 1857 573.519C1853.58 579.179 1852.2 584.089 1852.79 589.371C1853.78 598.305 1858.89 604.879 1869.96 610.959C1881.67 617.391 1897.34 621.722 1915.5 626.637L1916.55 626.92C1933.42 631.484 1952.57 636.662 1967.88 645.068Z" fill="#0ABB66"/>
<path d="M1821.93 592.815C1824.43 615.293 1838.72 629.2 1854.99 638.134C1870.3 646.543 1889.45 651.723 1906.33 656.288L1907.37 656.568C1925.53 661.483 1941.2 665.813 1952.92 672.247C1964 678.328 1969.11 684.905 1970.11 693.84C1970.77 699.692 1969.81 703.151 1968.65 705.36C1967.46 707.64 1965.31 709.961 1961.38 712.306C1952.72 717.468 1939.46 720.551 1921.83 724.076C1920.64 724.315 1919.43 724.555 1918.2 724.799C1902.63 727.891 1884.54 731.482 1869.03 738.209C1851.76 745.702 1835.49 758.004 1828.56 779.719C1821.79 800.933 1826.79 821.805 1834.68 839.936C1841.48 855.55 1851.32 871.052 1860.06 884.821C1861.38 886.905 1862.68 888.948 1863.94 890.947C1874.14 907.159 1881.43 919.948 1883.76 930.483C1884.84 935.347 1884.61 938.789 1883.72 941.406C1882.88 943.909 1880.97 947.011 1876.27 950.495C1871.66 953.909 1868.22 954.975 1865.75 955.214C1863.29 955.451 1860.52 954.992 1857.03 953.324C1849.23 949.593 1840.64 941.318 1829.55 929.025C1827.57 926.829 1825.52 924.515 1823.4 922.127L1823.4 922.123C1814.52 912.118 1804.48 900.803 1793.67 891.369C1780.09 879.51 1763.5 868.933 1743.24 866.611C1704.34 862.155 1673.18 879.601 1647.73 903.761C1624.31 926.004 1604.07 955.547 1585.65 982.419C1584.36 984.31 1583.07 986.188 1581.79 988.05C1561.59 1017.47 1543.91 1042.08 1525.34 1055.67C1516.44 1062.18 1508.22 1065.46 1500.17 1065.92C1492.23 1066.38 1482.76 1064.19 1471.12 1056.73C1459.59 1049.34 1453.83 1041.69 1451.09 1034.3C1448.3 1026.76 1448.02 1017.76 1450.49 1006.71C1455.62 983.726 1471.29 956.919 1490.01 926.033C1490.89 924.576 1491.78 923.112 1492.67 921.639C1510 893.088 1529.05 861.712 1539.25 830.833C1550.18 797.758 1551.86 762.517 1528.9 730.45C1515.59 711.866 1496.14 701.46 1476.8 694.726C1461.29 689.322 1444.36 685.827 1429.3 682.717C1425.83 682.002 1422.46 681.307 1419.24 680.614C1400.76 676.646 1387.41 672.834 1379.11 667.041C1375.37 664.425 1373.19 661.747 1371.96 658.841C1370.7 655.895 1369.89 651.479 1370.89 644.57C1372.42 633.977 1377.09 628.405 1384.1 624.286C1392.26 619.485 1403.61 616.691 1418.59 613.812C1420.61 613.422 1422.71 613.032 1424.85 612.631C1437.53 610.262 1452.02 607.554 1465.33 602.808C1481.32 597.109 1497.25 587.973 1508.66 571.45C1525.79 546.669 1524.45 519.056 1517.03 493.857C1510.31 470.997 1497.86 447.675 1486.78 426.944L1486.74 426.858C1485.82 425.136 1484.91 423.432 1484.01 421.748C1471.64 398.49 1462.32 379.701 1460.35 364.739C1459.44 357.804 1460.32 352.963 1462.31 349.288C1464.29 345.638 1468.34 341.332 1477.16 337.286C1482.41 334.878 1485.86 334.649 1488.12 334.959C1490.37 335.269 1492.86 336.312 1495.86 338.835C1502.62 344.517 1509.04 354.968 1517.11 369.904C1518.13 371.786 1519.17 373.731 1520.23 375.722L1520.24 375.74C1527 388.373 1534.75 402.878 1544.14 415.176C1555.21 429.668 1569.95 443.07 1590.67 447.695C1608.48 451.669 1624.29 449.323 1637.59 440.735C1650.33 432.507 1659.02 419.656 1665.4 405.933C1675.9 383.352 1682.27 353.269 1688.3 324.838C1689.44 319.447 1690.57 314.116 1691.71 308.907C1699.3 274.308 1707.47 244.856 1721.46 227.05C1728.02 218.696 1735.43 213.531 1744.39 211.369C1753.58 209.152 1766.16 209.672 1783.65 215.999C1794.74 220.011 1800.39 224.931 1803.4 229.523C1806.41 234.127 1807.91 240.137 1807.46 248.439C1806.52 266.161 1797.26 288.634 1785.35 315.409C1784.46 317.398 1783.56 319.409 1782.66 321.439C1772.02 345.251 1760.22 371.646 1755.51 396.16C1750.24 423.582 1753.19 452.395 1778.8 473.642C1795.16 487.207 1815.65 489.664 1830.01 491.386C1831.91 491.613 1833.69 491.828 1835.35 492.053C1851.51 494.25 1857.83 496.977 1861.51 505.554C1863.45 510.045 1863.12 513.302 1861.44 517.082C1859.34 521.833 1855.27 526.887 1849.07 533.911C1848.49 534.57 1847.88 535.249 1847.26 535.947C1841.92 541.96 1835.34 549.354 1830.41 557.521C1824.64 567.096 1820.37 578.827 1821.93 592.815Z" fill="#0ABB66"/>
<path d="M570.698 255.88L566.798 256.18L565.598 247.84H555.518V279.16H562.418V283H544.418V279.16H551.138V247.84H541.058L539.858 256.18L536.018 255.88L537.158 244H569.498L570.698 255.88ZM614.745 283H600.525V279.16H605.445V265H583.785V279.16H588.705V283H574.485V279.16H579.405V247.84H574.485V244H588.705V247.84H583.785V261.28H605.445V247.84H600.525V244H614.745V247.84H609.825V279.16H614.745V283ZM648.818 283H619.778V279.16H624.698V247.84H619.778V244H648.278L649.478 255.04L645.638 255.46L644.438 247.84H629.078V261.28H647.498V265.12H629.078V279.16H644.978L646.178 271.54L649.958 271.96L648.818 283ZM695.045 244H708.065L707.705 247.84H703.985L702.005 266.98C701.685 269.74 700.985 272.4 699.905 274.96C698.825 277.48 697.145 279.56 694.865 281.2C692.585 282.8 689.485 283.6 685.565 283.6C679.925 283.6 676.125 282 674.165 278.8C672.245 275.56 671.505 271.84 671.945 267.64L674.045 247.84H670.145L670.505 244H684.005L683.525 247.84H678.305L676.265 267.52C675.865 271.36 676.445 274.34 678.005 276.46C679.565 278.58 682.225 279.64 685.985 279.64C693.065 279.64 697.065 275.42 697.985 266.98L699.965 247.84H694.625L695.045 244ZM709.402 279.16H713.782L717.082 247.84H712.102L712.522 244H720.562L739.102 274.12H739.282L741.982 247.84H736.342L736.702 244H751.222L750.862 247.84H746.062L742.402 283H739.702L720.862 252.28H720.682L717.802 279.16H723.922L723.562 283H708.982L709.402 279.16ZM751.933 279.16H756.673L759.973 247.84H755.173L755.593 244H769.333L768.973 247.84H764.113L760.813 279.16H765.673L765.253 283H751.513L751.933 279.16ZM809.266 247.84H805.726L788.386 283H784.906L774.886 247.84H771.226L771.586 244H785.266L784.906 247.84H779.506L787.426 276.52H787.666L801.346 247.84H795.946L796.306 244H809.686L809.266 247.84ZM836.196 283H808.056L808.416 279.16H813.216L816.576 247.84H811.716L812.136 244H840.036V255.04L836.256 255.46L835.896 247.84H820.836L819.336 261.28H837.456L837.096 265.12H818.976L817.476 279.16H832.836L834.816 271.54L838.476 271.96L836.196 283ZM842.87 279.16H847.61L850.91 247.84H846.17L846.59 244H862.49C866.77 244 869.91 244.94 871.91 246.82C873.95 248.7 874.97 251.06 874.97 253.9C874.97 260.14 871.83 264.08 865.55 265.72L871.01 279.16H875.81L875.33 283H867.77L861.41 266.68H853.13L851.81 279.16H856.97L856.61 283H842.51L842.87 279.16ZM860.45 263.02C864.05 263.02 866.61 262.18 868.13 260.5C869.69 258.82 870.47 256.74 870.47 254.26C870.47 249.98 867.49 247.84 861.53 247.84H855.11L853.55 263.02H860.45ZM905.728 271.36C905.728 275.28 904.468 278.3 901.948 280.42C899.468 282.54 895.928 283.6 891.328 283.6C888.848 283.6 886.468 283.32 884.188 282.76C881.908 282.16 880.208 281.38 879.088 280.42L880.648 272.74L884.068 273.1L883.408 278.02C884.528 278.66 885.808 279.12 887.248 279.4C888.728 279.64 890.088 279.76 891.328 279.76C894.208 279.76 896.548 279.16 898.348 277.96C900.188 276.72 901.108 274.7 901.108 271.9C901.108 269.06 900.228 267.26 898.468 266.5C896.748 265.74 894.748 265.08 892.468 264.52C890.028 263.96 887.688 263.04 885.448 261.76C883.248 260.48 882.148 258.08 882.148 254.56C882.148 250.64 883.548 247.8 886.348 246.04C889.148 244.28 892.168 243.4 895.408 243.4C897.488 243.4 899.588 243.7 901.708 244.3C903.828 244.9 905.408 245.68 906.448 246.64L906.028 254.38L902.428 254.74V248.92C901.268 248.28 900.068 247.86 898.828 247.66C897.628 247.42 896.548 247.3 895.588 247.3C892.868 247.3 890.708 247.9 889.108 249.1C887.508 250.3 886.708 252 886.708 254.2C886.708 256.44 887.468 257.94 888.988 258.7C890.508 259.46 892.328 260.12 894.448 260.68C897.448 261.4 900.068 262.38 902.308 263.62C904.588 264.86 905.728 267.44 905.728 271.36ZM907.213 279.16H910.813L926.533 247.84H920.473L920.833 244H931.633L941.653 279.16H945.373L944.953 283H931.573L931.933 279.16H937.033L935.053 271.66H918.853L915.193 279.16H920.593L920.233 283H906.913L907.213 279.16ZM929.233 250.36L920.533 268.24H934.153L929.473 250.36H929.233ZM974.283 283H946.923L947.283 279.16H952.083L955.383 247.84H950.583L951.003 244H966.423L966.063 247.84H959.643L956.343 279.16H970.863L972.963 270.22L976.743 270.52L974.283 283ZM1045.24 247.84H1041.94L1031.5 283H1027.96L1017.7 251.8H1017.46L1007.5 283H1003.96L992.804 247.84H989.504V244H1003V247.84H997.484L1005.7 275.86H1005.94L1014.94 247.84H1011.04V244H1024.48V247.84H1020.58L1029.7 276.04H1029.94L1037.5 247.84H1031.86V244H1045.24V247.84ZM1081.25 283H1067.39V279.16H1072.61L1069.79 271.66H1053.11L1050.11 279.16H1055.75V283H1042.01V279.16H1045.67L1058.45 247.84H1052.21V244H1063.31L1077.29 279.16H1081.25V283ZM1068.53 268.24L1061.81 250.36H1061.45L1054.43 268.24H1068.53ZM1111.51 283H1083.37V279.16H1088.29V247.84H1083.37V244H1099.21V247.84H1092.67V279.16H1107.61L1108.81 270.22L1112.71 270.52L1111.51 283ZM1144.21 283H1116.07V279.16H1120.99V247.84H1116.07V244H1131.91V247.84H1125.37V279.16H1140.31L1141.51 270.22L1145.41 270.52L1144.21 283Z" fill="black"/>
<path d="M496.236 626.15C495.636 624.77 494.716 623.69 493.476 622.91C492.256 622.11 490.816 621.71 489.156 621.71C487.596 621.71 486.196 622.07 484.956 622.79C483.716 623.51 482.736 624.54 482.016 625.88C481.296 627.2 480.936 628.74 480.936 630.5C480.936 632.26 481.296 633.81 482.016 635.15C482.736 636.49 483.716 637.52 484.956 638.24C486.196 638.96 487.596 639.32 489.156 639.32C490.616 639.32 491.926 639.01 493.086 638.39C494.266 637.75 495.206 636.85 495.906 635.69C496.626 634.51 497.036 633.14 497.136 631.58H488.316V629.87H499.356V631.4C499.256 633.24 498.756 634.91 497.856 636.41C496.956 637.89 495.746 639.06 494.226 639.92C492.726 640.78 491.036 641.21 489.156 641.21C487.216 641.21 485.456 640.76 483.876 639.86C482.296 638.94 481.046 637.67 480.126 636.05C479.226 634.41 478.776 632.56 478.776 630.5C478.776 628.44 479.226 626.6 480.126 624.98C481.046 623.34 482.296 622.07 483.876 621.17C485.456 620.25 487.216 619.79 489.156 619.79C491.396 619.79 493.356 620.35 495.036 621.47C496.716 622.59 497.936 624.15 498.696 626.15H496.236ZM504.253 621.53C503.833 621.53 503.473 621.38 503.173 621.08C502.873 620.78 502.723 620.41 502.723 619.97C502.723 619.53 502.873 619.17 503.173 618.89C503.473 618.59 503.833 618.44 504.253 618.44C504.673 618.44 505.033 618.59 505.333 618.89C505.633 619.17 505.783 619.53 505.783 619.97C505.783 620.41 505.633 620.78 505.333 621.08C505.033 621.38 504.673 621.53 504.253 621.53ZM505.303 624.62V641H503.203V624.62H505.303ZM515.878 638.96L521.398 624.62H523.618L517.048 641H514.678L508.108 624.62H510.358L515.878 638.96ZM541.284 631.97C541.284 632.69 541.264 633.24 541.224 633.62H527.634C527.694 634.86 527.994 635.92 528.534 636.8C529.074 637.68 529.784 638.35 530.664 638.81C531.544 639.25 532.504 639.47 533.544 639.47C534.904 639.47 536.044 639.14 536.964 638.48C537.904 637.82 538.524 636.93 538.824 635.81H541.044C540.644 637.41 539.784 638.72 538.464 639.74C537.164 640.74 535.524 641.24 533.544 641.24C532.004 641.24 530.624 640.9 529.404 640.22C528.184 639.52 527.224 638.54 526.524 637.28C525.844 636 525.504 634.51 525.504 632.81C525.504 631.11 525.844 629.62 526.524 628.34C527.204 627.06 528.154 626.08 529.374 625.4C530.594 624.72 531.984 624.38 533.544 624.38C535.104 624.38 536.464 624.72 537.624 625.4C538.804 626.08 539.704 627 540.324 628.16C540.964 629.3 541.284 630.57 541.284 631.97ZM539.154 631.91C539.174 630.69 538.924 629.65 538.404 628.79C537.904 627.93 537.214 627.28 536.334 626.84C535.454 626.4 534.494 626.18 533.454 626.18C531.894 626.18 530.564 626.68 529.464 627.68C528.364 628.68 527.754 630.09 527.634 631.91H539.154ZM552.399 632.78C552.399 631.1 552.729 629.63 553.389 628.37C554.069 627.09 554.999 626.11 556.179 625.43C557.379 624.73 558.729 624.38 560.229 624.38C561.789 624.38 563.129 624.74 564.249 625.46C565.389 626.18 566.209 627.1 566.709 628.22V624.62H568.809V641H566.709V637.37C566.189 638.49 565.359 639.42 564.219 640.16C563.099 640.88 561.759 641.24 560.199 641.24C558.719 641.24 557.379 640.89 556.179 640.19C554.999 639.49 554.069 638.5 553.389 637.22C552.729 635.94 552.399 634.46 552.399 632.78ZM566.709 632.81C566.709 631.49 566.439 630.33 565.899 629.33C565.359 628.33 564.619 627.56 563.679 627.02C562.759 626.48 561.739 626.21 560.619 626.21C559.459 626.21 558.419 626.47 557.499 626.99C556.579 627.51 555.849 628.27 555.309 629.27C554.789 630.25 554.529 631.42 554.529 632.78C554.529 634.12 554.789 635.3 555.309 636.32C555.849 637.32 556.579 638.09 557.499 638.63C558.419 639.15 559.459 639.41 560.619 639.41C561.739 639.41 562.759 639.14 563.679 638.6C564.619 638.06 565.359 637.29 565.899 636.29C566.439 635.29 566.709 634.13 566.709 632.81ZM572.643 632.81C572.643 631.11 572.983 629.63 573.663 628.37C574.343 627.09 575.283 626.11 576.483 625.43C577.683 624.73 579.053 624.38 580.593 624.38C582.613 624.38 584.273 624.88 585.573 625.88C586.893 626.88 587.743 628.24 588.123 629.96H585.873C585.593 628.78 584.983 627.86 584.043 627.2C583.123 626.52 581.973 626.18 580.593 626.18C579.493 626.18 578.503 626.43 577.623 626.93C576.743 627.43 576.043 628.18 575.523 629.18C575.023 630.16 574.773 631.37 574.773 632.81C574.773 634.25 575.023 635.47 575.523 636.47C576.043 637.47 576.743 638.22 577.623 638.72C578.503 639.22 579.493 639.47 580.593 639.47C581.973 639.47 583.123 639.14 584.043 638.48C584.983 637.8 585.593 636.86 585.873 635.66H588.123C587.743 637.34 586.893 638.69 585.573 639.71C584.253 640.73 582.593 641.24 580.593 641.24C579.053 641.24 577.683 640.9 576.483 640.22C575.283 639.52 574.343 638.54 573.663 637.28C572.983 636 572.643 634.51 572.643 632.81ZM591.042 632.81C591.042 631.11 591.382 629.63 592.062 628.37C592.742 627.09 593.682 626.11 594.882 625.43C596.082 624.73 597.452 624.38 598.992 624.38C601.012 624.38 602.672 624.88 603.972 625.88C605.292 626.88 606.142 628.24 606.522 629.96H604.272C603.992 628.78 603.382 627.86 602.442 627.2C601.522 626.52 600.372 626.18 598.992 626.18C597.892 626.18 596.902 626.43 596.022 626.93C595.142 627.43 594.442 628.18 593.922 629.18C593.422 630.16 593.172 631.37 593.172 632.81C593.172 634.25 593.422 635.47 593.922 636.47C594.442 637.47 595.142 638.22 596.022 638.72C596.902 639.22 597.892 639.47 598.992 639.47C600.372 639.47 601.522 639.14 602.442 638.48C603.382 637.8 603.992 636.86 604.272 635.66H606.522C606.142 637.34 605.292 638.69 603.972 639.71C602.652 640.73 600.992 641.24 598.992 641.24C597.452 641.24 596.082 640.9 594.882 640.22C593.682 639.52 592.742 638.54 592.062 637.28C591.382 636 591.042 634.51 591.042 632.81ZM625.22 631.97C625.22 632.69 625.2 633.24 625.16 633.62H611.57C611.63 634.86 611.93 635.92 612.47 636.8C613.01 637.68 613.72 638.35 614.6 638.81C615.48 639.25 616.44 639.47 617.48 639.47C618.84 639.47 619.98 639.14 620.9 638.48C621.84 637.82 622.46 636.93 622.76 635.81H624.98C624.58 637.41 623.72 638.72 622.4 639.74C621.1 640.74 619.46 641.24 617.48 641.24C615.94 641.24 614.56 640.9 613.34 640.22C612.12 639.52 611.16 638.54 610.46 637.28C609.78 636 609.44 634.51 609.44 632.81C609.44 631.11 609.78 629.62 610.46 628.34C611.14 627.06 612.09 626.08 613.31 625.4C614.53 624.72 615.92 624.38 617.48 624.38C619.04 624.38 620.4 624.72 621.56 625.4C622.74 626.08 623.64 627 624.26 628.16C624.9 629.3 625.22 630.57 625.22 631.97ZM623.09 631.91C623.11 630.69 622.86 629.65 622.34 628.79C621.84 627.93 621.15 627.28 620.27 626.84C619.39 626.4 618.43 626.18 617.39 626.18C615.83 626.18 614.5 626.68 613.4 627.68C612.3 628.68 611.69 630.09 611.57 631.91H623.09ZM634.702 641.24C632.822 641.24 631.282 640.81 630.082 639.95C628.902 639.07 628.242 637.88 628.102 636.38H630.262C630.362 637.3 630.792 638.05 631.552 638.63C632.332 639.19 633.372 639.47 634.672 639.47C635.812 639.47 636.702 639.2 637.342 638.66C638.002 638.12 638.332 637.45 638.332 636.65C638.332 636.09 638.152 635.63 637.792 635.27C637.432 634.91 636.972 634.63 636.412 634.43C635.872 634.21 635.132 633.98 634.192 633.74C632.972 633.42 631.982 633.1 631.222 632.78C630.462 632.46 629.812 631.99 629.272 631.37C628.752 630.73 628.492 629.88 628.492 628.82C628.492 628.02 628.732 627.28 629.212 626.6C629.692 625.92 630.372 625.38 631.252 624.98C632.132 624.58 633.132 624.38 634.252 624.38C636.012 624.38 637.432 624.83 638.512 625.73C639.592 626.61 640.172 627.83 640.252 629.39H638.152C638.092 628.43 637.712 627.66 637.012 627.08C636.332 626.48 635.392 626.18 634.192 626.18C633.132 626.18 632.272 626.43 631.612 626.93C630.952 627.43 630.622 628.05 630.622 628.79C630.622 629.43 630.812 629.96 631.192 630.38C631.592 630.78 632.082 631.1 632.662 631.34C633.242 631.56 634.022 631.81 635.002 632.09C636.182 632.41 637.122 632.72 637.822 633.02C638.522 633.32 639.122 633.76 639.622 634.34C640.122 634.92 640.382 635.69 640.402 636.65C640.402 637.53 640.162 638.32 639.682 639.02C639.202 639.7 638.532 640.24 637.672 640.64C636.812 641.04 635.822 641.24 634.702 641.24ZM649.995 641.24C648.115 641.24 646.575 640.81 645.375 639.95C644.195 639.07 643.535 637.88 643.395 636.38H645.555C645.655 637.3 646.085 638.05 646.845 638.63C647.625 639.19 648.665 639.47 649.965 639.47C651.105 639.47 651.995 639.2 652.635 638.66C653.295 638.12 653.625 637.45 653.625 636.65C653.625 636.09 653.445 635.63 653.085 635.27C652.725 634.91 652.265 634.63 651.705 634.43C651.165 634.21 650.425 633.98 649.485 633.74C648.265 633.42 647.275 633.1 646.515 632.78C645.755 632.46 645.105 631.99 644.565 631.37C644.045 630.73 643.785 629.88 643.785 628.82C643.785 628.02 644.025 627.28 644.505 626.6C644.985 625.92 645.665 625.38 646.545 624.98C647.425 624.58 648.425 624.38 649.545 624.38C651.305 624.38 652.725 624.83 653.805 625.73C654.885 626.61 655.465 627.83 655.545 629.39H653.445C653.385 628.43 653.005 627.66 652.305 627.08C651.625 626.48 650.685 626.18 649.485 626.18C648.425 626.18 647.565 626.43 646.905 626.93C646.245 627.43 645.915 628.05 645.915 628.79C645.915 629.43 646.105 629.96 646.485 630.38C646.885 630.78 647.375 631.1 647.955 631.34C648.535 631.56 649.315 631.81 650.295 632.09C651.475 632.41 652.415 632.72 653.115 633.02C653.815 633.32 654.415 633.76 654.915 634.34C655.415 634.92 655.675 635.69 655.695 636.65C655.695 637.53 655.455 638.32 654.975 639.02C654.495 639.7 653.825 640.24 652.965 640.64C652.105 641.04 651.115 641.24 649.995 641.24ZM670.61 626.39V636.56C670.61 637.56 670.8 638.25 671.18 638.63C671.56 639.01 672.23 639.2 673.19 639.2H675.11V641H672.86C671.38 641 670.28 640.66 669.56 639.98C668.84 639.28 668.48 638.14 668.48 636.56V626.39H666.2V624.62H668.48V620.51H670.61V624.62H675.11V626.39H670.61ZM685.744 641.24C684.204 641.24 682.814 640.9 681.574 640.22C680.354 639.52 679.384 638.54 678.664 637.28C677.964 636 677.614 634.51 677.614 632.81C677.614 631.11 677.974 629.63 678.694 628.37C679.414 627.09 680.394 626.11 681.634 625.43C682.874 624.73 684.264 624.38 685.804 624.38C687.344 624.38 688.734 624.73 689.974 625.43C691.234 626.11 692.214 627.09 692.914 628.37C693.634 629.63 693.994 631.11 693.994 632.81C693.994 634.49 693.634 635.97 692.914 637.25C692.194 638.53 691.204 639.52 689.944 640.22C688.684 640.9 687.284 641.24 685.744 641.24ZM685.744 639.41C686.824 639.41 687.824 639.17 688.744 638.69C689.664 638.19 690.404 637.45 690.964 636.47C691.544 635.47 691.834 634.25 691.834 632.81C691.834 631.37 691.554 630.16 690.994 629.18C690.434 628.18 689.694 627.44 688.774 626.96C687.854 626.46 686.854 626.21 685.774 626.21C684.694 626.21 683.694 626.46 682.774 626.96C681.854 627.44 681.114 628.18 680.554 629.18C680.014 630.16 679.744 631.37 679.744 632.81C679.744 634.25 680.014 635.47 680.554 636.47C681.114 637.45 681.844 638.19 682.744 638.69C683.664 639.17 684.664 639.41 685.744 639.41ZM714.904 641L708.154 633.65V641H706.054V618.8H708.154V631.94L714.754 624.62H717.694L709.924 632.78L717.754 641H714.904ZM728.148 624.32C730.108 624.32 731.708 624.93 732.948 626.15C734.188 627.35 734.808 629.1 734.808 631.4V641H732.738V631.64C732.738 629.86 732.288 628.5 731.388 627.56C730.508 626.62 729.298 626.15 727.758 626.15C726.178 626.15 724.918 626.65 723.978 627.65C723.038 628.65 722.568 630.12 722.568 632.06V641H720.468V624.62H722.568V627.41C723.088 626.41 723.838 625.65 724.818 625.13C725.798 624.59 726.908 624.32 728.148 624.32ZM746.623 641.24C745.083 641.24 743.693 640.9 742.453 640.22C741.233 639.52 740.263 638.54 739.543 637.28C738.843 636 738.493 634.51 738.493 632.81C738.493 631.11 738.853 629.63 739.573 628.37C740.293 627.09 741.273 626.11 742.513 625.43C743.753 624.73 745.143 624.38 746.683 624.38C748.223 624.38 749.613 624.73 750.853 625.43C752.113 626.11 753.093 627.09 753.793 628.37C754.513 629.63 754.873 631.11 754.873 632.81C754.873 634.49 754.513 635.97 753.793 637.25C753.073 638.53 752.083 639.52 750.823 640.22C749.563 640.9 748.163 641.24 746.623 641.24ZM746.623 639.41C747.703 639.41 748.703 639.17 749.623 638.69C750.543 638.19 751.283 637.45 751.843 636.47C752.423 635.47 752.713 634.25 752.713 632.81C752.713 631.37 752.433 630.16 751.873 629.18C751.313 628.18 750.573 627.44 749.653 626.96C748.733 626.46 747.733 626.21 746.653 626.21C745.573 626.21 744.573 626.46 743.653 626.96C742.733 627.44 741.993 628.18 741.433 629.18C740.893 630.16 740.623 631.37 740.623 632.81C740.623 634.25 740.893 635.47 741.433 636.47C741.993 637.45 742.723 638.19 743.623 638.69C744.543 639.17 745.543 639.41 746.623 639.41ZM780.301 624.62L775.171 641H773.071L768.541 627.26L764.011 641H761.881L756.751 624.62H758.881L762.961 638.87L767.551 624.62H769.651L774.181 638.9L778.231 624.62H780.301ZM785.264 618.8V641H783.164V618.8H785.264ZM804.839 631.97C804.839 632.69 804.819 633.24 804.779 633.62H791.189C791.249 634.86 791.549 635.92 792.089 636.8C792.629 637.68 793.339 638.35 794.219 638.81C795.099 639.25 796.059 639.47 797.099 639.47C798.459 639.47 799.599 639.14 800.519 638.48C801.459 637.82 802.079 636.93 802.379 635.81H804.599C804.199 637.41 803.339 638.72 802.019 639.74C800.719 640.74 799.079 641.24 797.099 641.24C795.559 641.24 794.179 640.9 792.959 640.22C791.739 639.52 790.779 638.54 790.079 637.28C789.399 636 789.059 634.51 789.059 632.81C789.059 631.11 789.399 629.62 790.079 628.34C790.759 627.06 791.709 626.08 792.929 625.4C794.149 624.72 795.539 624.38 797.099 624.38C798.659 624.38 800.019 624.72 801.179 625.4C802.359 626.08 803.259 627 803.879 628.16C804.519 629.3 804.839 630.57 804.839 631.97ZM802.709 631.91C802.729 630.69 802.479 629.65 801.959 628.79C801.459 627.93 800.769 627.28 799.889 626.84C799.009 626.4 798.049 626.18 797.009 626.18C795.449 626.18 794.119 626.68 793.019 627.68C791.919 628.68 791.309 630.09 791.189 631.91H802.709ZM807.721 632.78C807.721 631.1 808.061 629.63 808.741 628.37C809.421 627.09 810.351 626.11 811.531 625.43C812.731 624.73 814.081 624.38 815.581 624.38C817.021 624.38 818.321 624.73 819.481 625.43C820.641 626.13 821.491 627.04 822.031 628.16V618.8H824.131V641H822.031V637.34C821.531 638.48 820.711 639.42 819.571 640.16C818.431 640.88 817.091 641.24 815.551 641.24C814.051 641.24 812.701 640.89 811.501 640.19C810.321 639.49 809.391 638.5 808.711 637.22C808.051 635.94 807.721 634.46 807.721 632.78ZM822.031 632.81C822.031 631.49 821.761 630.33 821.221 629.33C820.681 628.33 819.941 627.56 819.001 627.02C818.081 626.48 817.061 626.21 815.941 626.21C814.781 626.21 813.741 626.47 812.821 626.99C811.901 627.51 811.171 628.27 810.631 629.27C810.111 630.25 809.851 631.42 809.851 632.78C809.851 634.12 810.111 635.3 810.631 636.32C811.171 637.32 811.901 638.09 812.821 638.63C813.741 639.15 814.781 639.41 815.941 639.41C817.061 639.41 818.081 639.14 819.001 638.6C819.941 638.06 820.681 637.29 821.221 636.29C821.761 635.29 822.031 634.13 822.031 632.81ZM835.795 624.38C837.335 624.38 838.675 624.74 839.815 625.46C840.955 626.18 841.775 627.09 842.275 628.19V624.62H844.375V641.42C844.375 642.92 844.045 644.25 843.385 645.41C842.745 646.57 841.845 647.46 840.685 648.08C839.525 648.72 838.205 649.04 836.725 649.04C834.625 649.04 832.875 648.54 831.475 647.54C830.095 646.54 829.235 645.18 828.895 643.46H830.965C831.325 644.6 832.005 645.51 833.005 646.19C834.025 646.87 835.265 647.21 836.725 647.21C837.785 647.21 838.735 646.98 839.575 646.52C840.415 646.08 841.075 645.42 841.555 644.54C842.035 643.66 842.275 642.62 842.275 641.42V637.37C841.755 638.49 840.925 639.42 839.785 640.16C838.665 640.88 837.335 641.24 835.795 641.24C834.295 641.24 832.945 640.89 831.745 640.19C830.565 639.49 829.635 638.5 828.955 637.22C828.295 635.94 827.965 634.46 827.965 632.78C827.965 631.1 828.295 629.63 828.955 628.37C829.635 627.09 830.565 626.11 831.745 625.43C832.945 624.73 834.295 624.38 835.795 624.38ZM842.275 632.81C842.275 631.49 842.005 630.33 841.465 629.33C840.925 628.33 840.185 627.56 839.245 627.02C838.325 626.48 837.305 626.21 836.185 626.21C835.025 626.21 833.985 626.47 833.065 626.99C832.145 627.51 831.415 628.27 830.875 629.27C830.355 630.25 830.095 631.42 830.095 632.78C830.095 634.12 830.355 635.3 830.875 636.32C831.415 637.32 832.145 638.09 833.065 638.63C833.985 639.15 835.025 639.41 836.185 639.41C837.305 639.41 838.325 639.14 839.245 638.6C840.185 638.06 840.925 637.29 841.465 636.29C842.005 635.29 842.275 634.13 842.275 632.81ZM863.99 631.97C863.99 632.69 863.97 633.24 863.93 633.62H850.34C850.4 634.86 850.7 635.92 851.24 636.8C851.78 637.68 852.49 638.35 853.37 638.81C854.25 639.25 855.21 639.47 856.25 639.47C857.61 639.47 858.75 639.14 859.67 638.48C860.61 637.82 861.23 636.93 861.53 635.81H863.75C863.35 637.41 862.49 638.72 861.17 639.74C859.87 640.74 858.23 641.24 856.25 641.24C854.71 641.24 853.33 640.9 852.11 640.22C850.89 639.52 849.93 638.54 849.23 637.28C848.55 636 848.21 634.51 848.21 632.81C848.21 631.11 848.55 629.62 849.23 628.34C849.91 627.06 850.86 626.08 852.08 625.4C853.3 624.72 854.69 624.38 856.25 624.38C857.81 624.38 859.17 624.72 860.33 625.4C861.51 626.08 862.41 627 863.03 628.16C863.67 629.3 863.99 630.57 863.99 631.97ZM861.86 631.91C861.88 630.69 861.63 629.65 861.11 628.79C860.61 627.93 859.92 627.28 859.04 626.84C858.16 626.4 857.2 626.18 856.16 626.18C854.6 626.18 853.27 626.68 852.17 627.68C851.07 628.68 850.46 630.09 850.34 631.91H861.86ZM875.104 632.78C875.104 631.1 875.434 629.63 876.094 628.37C876.774 627.09 877.704 626.11 878.884 625.43C880.084 624.73 881.434 624.38 882.934 624.38C884.494 624.38 885.834 624.74 886.954 625.46C888.094 626.18 888.914 627.1 889.414 628.22V624.62H891.514V641H889.414V637.37C888.894 638.49 888.064 639.42 886.924 640.16C885.804 640.88 884.464 641.24 882.904 641.24C881.424 641.24 880.084 640.89 878.884 640.19C877.704 639.49 876.774 638.5 876.094 637.22C875.434 635.94 875.104 634.46 875.104 632.78ZM889.414 632.81C889.414 631.49 889.144 630.33 888.604 629.33C888.064 628.33 887.324 627.56 886.384 627.02C885.464 626.48 884.444 626.21 883.324 626.21C882.164 626.21 881.124 626.47 880.204 626.99C879.284 627.51 878.554 628.27 878.014 629.27C877.494 630.25 877.234 631.42 877.234 632.78C877.234 634.12 877.494 635.3 878.014 636.32C878.554 637.32 879.284 638.09 880.204 638.63C881.124 639.15 882.164 639.41 883.324 639.41C884.444 639.41 885.464 639.14 886.384 638.6C887.324 638.06 888.064 637.29 888.604 636.29C889.144 635.29 889.414 634.13 889.414 632.81ZM903.988 624.32C905.948 624.32 907.548 624.93 908.788 626.15C910.028 627.35 910.648 629.1 910.648 631.4V641H908.578V631.64C908.578 629.86 908.128 628.5 907.228 627.56C906.348 626.62 905.138 626.15 903.598 626.15C902.018 626.15 900.758 626.65 899.818 627.65C898.878 628.65 898.408 630.12 898.408 632.06V641H896.308V624.62H898.408V627.41C898.928 626.41 899.678 625.65 900.658 625.13C901.638 624.59 902.748 624.32 903.988 624.32ZM914.333 632.78C914.333 631.1 914.673 629.63 915.353 628.37C916.033 627.09 916.963 626.11 918.143 625.43C919.343 624.73 920.693 624.38 922.193 624.38C923.633 624.38 924.933 624.73 926.093 625.43C927.253 626.13 928.103 627.04 928.643 628.16V618.8H930.743V641H928.643V637.34C928.143 638.48 927.323 639.42 926.183 640.16C925.043 640.88 923.703 641.24 922.163 641.24C920.663 641.24 919.313 640.89 918.113 640.19C916.933 639.49 916.003 638.5 915.323 637.22C914.663 635.94 914.333 634.46 914.333 632.78ZM928.643 632.81C928.643 631.49 928.373 630.33 927.833 629.33C927.293 628.33 926.553 627.56 925.613 627.02C924.693 626.48 923.673 626.21 922.553 626.21C921.393 626.21 920.353 626.47 919.433 626.99C918.513 627.51 917.783 628.27 917.243 629.27C916.723 630.25 916.463 631.42 916.463 632.78C916.463 634.12 916.723 635.3 917.243 636.32C917.783 637.32 918.513 638.09 919.433 638.63C920.353 639.15 921.393 639.41 922.553 639.41C923.673 639.41 924.693 639.14 925.613 638.6C926.553 638.06 927.293 637.29 927.833 636.29C928.373 635.29 928.643 634.13 928.643 632.81ZM942.809 632.78C942.809 631.1 943.149 629.63 943.829 628.37C944.509 627.09 945.439 626.11 946.619 625.43C947.819 624.73 949.169 624.38 950.669 624.38C952.209 624.38 953.549 624.75 954.689 625.49C955.829 626.21 956.639 627.12 957.119 628.22V624.62H959.219V648.74H957.119V637.4C956.639 638.5 955.819 639.42 954.659 640.16C953.519 640.88 952.169 641.24 950.609 641.24C949.129 641.24 947.789 640.89 946.589 640.19C945.409 639.49 944.479 638.5 943.799 637.22C943.139 635.94 942.809 634.46 942.809 632.78ZM957.119 632.81C957.119 631.49 956.849 630.33 956.309 629.33C955.769 628.33 955.029 627.56 954.089 627.02C953.169 626.48 952.149 626.21 951.029 626.21C949.869 626.21 948.829 626.47 947.909 626.99C946.989 627.51 946.259 628.27 945.719 629.27C945.199 630.25 944.939 631.42 944.939 632.78C944.939 634.12 945.199 635.3 945.719 636.32C946.259 637.32 946.989 638.09 947.909 638.63C948.829 639.15 949.869 639.41 951.029 639.41C952.149 639.41 953.169 639.14 954.089 638.6C955.029 638.06 955.769 637.29 956.309 636.29C956.849 635.29 957.119 634.13 957.119 632.81ZM978.203 624.62V641H976.103V638.12C975.623 639.14 974.883 639.92 973.883 640.46C972.883 641 971.763 641.27 970.523 641.27C968.563 641.27 966.963 640.67 965.723 639.47C964.483 638.25 963.863 636.49 963.863 634.19V624.62H965.933V633.95C965.933 635.73 966.373 637.09 967.253 638.03C968.153 638.97 969.373 639.44 970.913 639.44C972.493 639.44 973.753 638.94 974.693 637.94C975.633 636.94 976.103 635.47 976.103 633.53V624.62H978.203ZM982.038 632.78C982.038 631.1 982.368 629.63 983.028 628.37C983.708 627.09 984.638 626.11 985.818 625.43C987.018 624.73 988.368 624.38 989.868 624.38C991.428 624.38 992.768 624.74 993.888 625.46C995.028 626.18 995.848 627.1 996.348 628.22V624.62H998.448V641H996.348V637.37C995.828 638.49 994.998 639.42 993.858 640.16C992.738 640.88 991.398 641.24 989.838 641.24C988.358 641.24 987.018 640.89 985.818 640.19C984.638 639.49 983.708 638.5 983.028 637.22C982.368 635.94 982.038 634.46 982.038 632.78ZM996.348 632.81C996.348 631.49 996.078 630.33 995.538 629.33C994.998 628.33 994.258 627.56 993.318 627.02C992.398 626.48 991.378 626.21 990.258 626.21C989.098 626.21 988.058 626.47 987.138 626.99C986.218 627.51 985.488 628.27 984.948 629.27C984.428 630.25 984.168 631.42 984.168 632.78C984.168 634.12 984.428 635.3 984.948 636.32C985.488 637.32 986.218 638.09 987.138 638.63C988.058 639.15 989.098 639.41 990.258 639.41C991.378 639.41 992.398 639.14 993.318 638.6C994.258 638.06 994.998 637.29 995.538 636.29C996.078 635.29 996.348 634.13 996.348 632.81ZM1005.34 618.8V641H1003.24V618.8H1005.34ZM1011.15 621.53C1010.73 621.53 1010.37 621.38 1010.07 621.08C1009.77 620.78 1009.62 620.41 1009.62 619.97C1009.62 619.53 1009.77 619.17 1010.07 618.89C1010.37 618.59 1010.73 618.44 1011.15 618.44C1011.57 618.44 1011.93 618.59 1012.23 618.89C1012.53 619.17 1012.68 619.53 1012.68 619.97C1012.68 620.41 1012.53 620.78 1012.23 621.08C1011.93 621.38 1011.57 621.53 1011.15 621.53ZM1012.2 624.62V641H1010.1V624.62H1012.2ZM1019.68 626.39V636.56C1019.68 637.56 1019.87 638.25 1020.25 638.63C1020.63 639.01 1021.3 639.2 1022.26 639.2H1024.18V641H1021.93C1020.45 641 1019.35 640.66 1018.63 639.98C1017.91 639.28 1017.55 638.14 1017.55 636.56V626.39H1015.27V624.62H1017.55V620.51H1019.68V624.62H1024.18V626.39H1019.68ZM1041.15 624.62L1031.43 648.71H1029.24L1032.42 640.91L1025.7 624.62H1028.01L1033.59 638.6L1038.99 624.62H1041.15ZM1051.27 632.81C1051.27 631.11 1051.61 629.63 1052.29 628.37C1052.97 627.09 1053.91 626.11 1055.11 625.43C1056.31 624.73 1057.68 624.38 1059.22 624.38C1061.24 624.38 1062.9 624.88 1064.2 625.88C1065.52 626.88 1066.37 628.24 1066.75 629.96H1064.5C1064.22 628.78 1063.61 627.86 1062.67 627.2C1061.75 626.52 1060.6 626.18 1059.22 626.18C1058.12 626.18 1057.13 626.43 1056.25 626.93C1055.37 627.43 1054.67 628.18 1054.15 629.18C1053.65 630.16 1053.4 631.37 1053.4 632.81C1053.4 634.25 1053.65 635.47 1054.15 636.47C1054.67 637.47 1055.37 638.22 1056.25 638.72C1057.13 639.22 1058.12 639.47 1059.22 639.47C1060.6 639.47 1061.75 639.14 1062.67 638.48C1063.61 637.8 1064.22 636.86 1064.5 635.66H1066.75C1066.37 637.34 1065.52 638.69 1064.2 639.71C1062.88 640.73 1061.22 641.24 1059.22 641.24C1057.68 641.24 1056.31 640.9 1055.11 640.22C1053.91 639.52 1052.97 638.54 1052.29 637.28C1051.61 636 1051.27 634.51 1051.27 632.81ZM1077.79 641.24C1076.25 641.24 1074.86 640.9 1073.62 640.22C1072.4 639.52 1071.43 638.54 1070.71 637.28C1070.01 636 1069.66 634.51 1069.66 632.81C1069.66 631.11 1070.02 629.63 1070.74 628.37C1071.46 627.09 1072.44 626.11 1073.68 625.43C1074.92 624.73 1076.31 624.38 1077.85 624.38C1079.39 624.38 1080.78 624.73 1082.02 625.43C1083.28 626.11 1084.26 627.09 1084.96 628.37C1085.68 629.63 1086.04 631.11 1086.04 632.81C1086.04 634.49 1085.68 635.97 1084.96 637.25C1084.24 638.53 1083.25 639.52 1081.99 640.22C1080.73 640.9 1079.33 641.24 1077.79 641.24ZM1077.79 639.41C1078.87 639.41 1079.87 639.17 1080.79 638.69C1081.71 638.19 1082.45 637.45 1083.01 636.47C1083.59 635.47 1083.88 634.25 1083.88 632.81C1083.88 631.37 1083.6 630.16 1083.04 629.18C1082.48 628.18 1081.74 627.44 1080.82 626.96C1079.9 626.46 1078.9 626.21 1077.82 626.21C1076.74 626.21 1075.74 626.46 1074.82 626.96C1073.9 627.44 1073.16 628.18 1072.6 629.18C1072.06 630.16 1071.79 631.37 1071.79 632.81C1071.79 634.25 1072.06 635.47 1072.6 636.47C1073.16 637.45 1073.89 638.19 1074.79 638.69C1075.71 639.17 1076.71 639.41 1077.79 639.41ZM1097.55 624.32C1099.51 624.32 1101.11 624.93 1102.35 626.15C1103.59 627.35 1104.21 629.1 1104.21 631.4V641H1102.14V631.64C1102.14 629.86 1101.69 628.5 1100.79 627.56C1099.91 626.62 1098.7 626.15 1097.16 626.15C1095.58 626.15 1094.32 626.65 1093.38 627.65C1092.44 628.65 1091.97 630.12 1091.97 632.06V641H1089.87V624.62H1091.97V627.41C1092.49 626.41 1093.24 625.65 1094.22 625.13C1095.2 624.59 1096.31 624.32 1097.55 624.32ZM1111.59 626.39V636.56C1111.59 637.56 1111.78 638.25 1112.16 638.63C1112.54 639.01 1113.21 639.2 1114.17 639.2H1116.09V641H1113.84C1112.36 641 1111.26 640.66 1110.54 639.98C1109.82 639.28 1109.46 638.14 1109.46 636.56V626.39H1107.18V624.62H1109.46V620.51H1111.59V624.62H1116.09V626.39H1111.59ZM1134.37 631.97C1134.37 632.69 1134.35 633.24 1134.31 633.62H1120.72C1120.78 634.86 1121.08 635.92 1121.62 636.8C1122.16 637.68 1122.87 638.35 1123.75 638.81C1124.63 639.25 1125.59 639.47 1126.63 639.47C1127.99 639.47 1129.13 639.14 1130.05 638.48C1130.99 637.82 1131.61 636.93 1131.91 635.81H1134.13C1133.73 637.41 1132.87 638.72 1131.55 639.74C1130.25 640.74 1128.61 641.24 1126.63 641.24C1125.09 641.24 1123.71 640.9 1122.49 640.22C1121.27 639.52 1120.31 638.54 1119.61 637.28C1118.93 636 1118.59 634.51 1118.59 632.81C1118.59 631.11 1118.93 629.62 1119.61 628.34C1120.29 627.06 1121.24 626.08 1122.46 625.4C1123.68 624.72 1125.07 624.38 1126.63 624.38C1128.19 624.38 1129.55 624.72 1130.71 625.4C1131.89 626.08 1132.79 627 1133.41 628.16C1134.05 629.3 1134.37 630.57 1134.37 631.97ZM1132.24 631.91C1132.26 630.69 1132.01 629.65 1131.49 628.79C1130.99 627.93 1130.3 627.28 1129.42 626.84C1128.54 626.4 1127.58 626.18 1126.54 626.18C1124.98 626.18 1123.65 626.68 1122.55 627.68C1121.45 628.68 1120.84 630.09 1120.72 631.91H1132.24ZM1145.89 624.32C1147.85 624.32 1149.45 624.93 1150.69 626.15C1151.93 627.35 1152.55 629.1 1152.55 631.4V641H1150.48V631.64C1150.48 629.86 1150.03 628.5 1149.13 627.56C1148.25 626.62 1147.04 626.15 1145.5 626.15C1143.92 626.15 1142.66 626.65 1141.72 627.65C1140.78 628.65 1140.31 630.12 1140.31 632.06V641H1138.21V624.62H1140.31V627.41C1140.83 626.41 1141.58 625.65 1142.56 625.13C1143.54 624.59 1144.65 624.32 1145.89 624.32ZM1159.93 626.39V636.56C1159.93 637.56 1160.12 638.25 1160.5 638.63C1160.88 639.01 1161.55 639.2 1162.51 639.2H1164.43V641H1162.18C1160.7 641 1159.6 640.66 1158.88 639.98C1158.16 639.28 1157.8 638.14 1157.8 636.56V626.39H1155.52V624.62H1157.8V620.51H1159.93V624.62H1164.43V626.39H1159.93ZM1178.85 626.39V636.56C1178.85 637.56 1179.04 638.25 1179.42 638.63C1179.8 639.01 1180.47 639.2 1181.43 639.2H1183.35V641H1181.1C1179.62 641 1178.52 640.66 1177.8 639.98C1177.08 639.28 1176.72 638.14 1176.72 636.56V626.39H1174.44V624.62H1176.72V620.51H1178.85V624.62H1183.35V626.39H1178.85ZM1193.99 641.24C1192.45 641.24 1191.06 640.9 1189.82 640.22C1188.6 639.52 1187.63 638.54 1186.91 637.28C1186.21 636 1185.86 634.51 1185.86 632.81C1185.86 631.11 1186.22 629.63 1186.94 628.37C1187.66 627.09 1188.64 626.11 1189.88 625.43C1191.12 624.73 1192.51 624.38 1194.05 624.38C1195.59 624.38 1196.98 624.73 1198.22 625.43C1199.48 626.11 1200.46 627.09 1201.16 628.37C1201.88 629.63 1202.24 631.11 1202.24 632.81C1202.24 634.49 1201.88 635.97 1201.16 637.25C1200.44 638.53 1199.45 639.52 1198.19 640.22C1196.93 640.9 1195.53 641.24 1193.99 641.24ZM1193.99 639.41C1195.07 639.41 1196.07 639.17 1196.99 638.69C1197.91 638.19 1198.65 637.45 1199.21 636.47C1199.79 635.47 1200.08 634.25 1200.08 632.81C1200.08 631.37 1199.8 630.16 1199.24 629.18C1198.68 628.18 1197.94 627.44 1197.02 626.96C1196.1 626.46 1195.1 626.21 1194.02 626.21C1192.94 626.21 1191.94 626.46 1191.02 626.96C1190.1 627.44 1189.36 628.18 1188.8 629.18C1188.26 630.16 1187.99 631.37 1187.99 632.81C1187.99 634.25 1188.26 635.47 1188.8 636.47C1189.36 637.45 1190.09 638.19 1190.99 638.69C1191.91 639.17 1192.91 639.41 1193.99 639.41ZM788.799 676.97C788.799 677.69 788.779 678.24 788.739 678.62H775.149C775.209 679.86 775.509 680.92 776.049 681.8C776.589 682.68 777.299 683.35 778.179 683.81C779.059 684.25 780.019 684.47 781.059 684.47C782.419 684.47 783.559 684.14 784.479 683.48C785.419 682.82 786.039 681.93 786.339 680.81H788.559C788.159 682.41 787.299 683.72 785.979 684.74C784.679 685.74 783.039 686.24 781.059 686.24C779.519 686.24 778.139 685.9 776.919 685.22C775.699 684.52 774.739 683.54 774.039 682.28C773.359 681 773.019 679.51 773.019 677.81C773.019 676.11 773.359 674.62 774.039 673.34C774.719 672.06 775.669 671.08 776.889 670.4C778.109 669.72 779.499 669.38 781.059 669.38C782.619 669.38 783.979 669.72 785.139 670.4C786.319 671.08 787.219 672 787.839 673.16C788.479 674.3 788.799 675.57 788.799 676.97ZM786.669 676.91C786.689 675.69 786.439 674.65 785.919 673.79C785.419 672.93 784.729 672.28 783.849 671.84C782.969 671.4 782.009 671.18 780.969 671.18C779.409 671.18 778.079 671.68 776.979 672.68C775.879 673.68 775.269 675.09 775.149 676.91H786.669ZM798.461 683.96L803.981 669.62H806.201L799.631 686H797.261L790.691 669.62H792.941L798.461 683.96ZM823.867 676.97C823.867 677.69 823.847 678.24 823.807 678.62H810.217C810.277 679.86 810.577 680.92 811.117 681.8C811.657 682.68 812.367 683.35 813.247 683.81C814.127 684.25 815.087 684.47 816.127 684.47C817.487 684.47 818.627 684.14 819.547 683.48C820.487 682.82 821.107 681.93 821.407 680.81H823.627C823.227 682.41 822.367 683.72 821.047 684.74C819.747 685.74 818.107 686.24 816.127 686.24C814.587 686.24 813.207 685.9 811.987 685.22C810.767 684.52 809.807 683.54 809.107 682.28C808.427 681 808.087 679.51 808.087 677.81C808.087 676.11 808.427 674.62 809.107 673.34C809.787 672.06 810.737 671.08 811.957 670.4C813.177 669.72 814.567 669.38 816.127 669.38C817.687 669.38 819.047 669.72 820.207 670.4C821.387 671.08 822.287 672 822.907 673.16C823.547 674.3 823.867 675.57 823.867 676.97ZM821.737 676.91C821.757 675.69 821.507 674.65 820.987 673.79C820.487 672.93 819.797 672.28 818.917 671.84C818.037 671.4 817.077 671.18 816.037 671.18C814.477 671.18 813.147 671.68 812.047 672.68C810.947 673.68 810.337 675.09 810.217 676.91H821.737ZM829.81 672.53C830.27 671.51 830.97 670.72 831.91 670.16C832.87 669.6 834.04 669.32 835.42 669.32V671.51H834.85C833.33 671.51 832.11 671.92 831.19 672.74C830.27 673.56 829.81 674.93 829.81 676.85V686H827.71V669.62H829.81V672.53ZM852.079 669.62L842.359 693.71H840.169L843.349 685.91L836.629 669.62H838.939L844.519 683.6L849.919 669.62H852.079ZM862.096 686.24C860.556 686.24 859.166 685.9 857.926 685.22C856.706 684.52 855.736 683.54 855.016 682.28C854.316 681 853.966 679.51 853.966 677.81C853.966 676.11 854.326 674.63 855.046 673.37C855.766 672.09 856.746 671.11 857.986 670.43C859.226 669.73 860.616 669.38 862.156 669.38C863.696 669.38 865.086 669.73 866.326 670.43C867.586 671.11 868.566 672.09 869.266 673.37C869.986 674.63 870.346 676.11 870.346 677.81C870.346 679.49 869.986 680.97 869.266 682.25C868.546 683.53 867.556 684.52 866.296 685.22C865.036 685.9 863.636 686.24 862.096 686.24ZM862.096 684.41C863.176 684.41 864.176 684.17 865.096 683.69C866.016 683.19 866.756 682.45 867.316 681.47C867.896 680.47 868.186 679.25 868.186 677.81C868.186 676.37 867.906 675.16 867.346 674.18C866.786 673.18 866.046 672.44 865.126 671.96C864.206 671.46 863.206 671.21 862.126 671.21C861.046 671.21 860.046 671.46 859.126 671.96C858.206 672.44 857.466 673.18 856.906 674.18C856.366 675.16 856.096 676.37 856.096 677.81C856.096 679.25 856.366 680.47 856.906 681.47C857.466 682.45 858.196 683.19 859.096 683.69C860.016 684.17 861.016 684.41 862.096 684.41ZM881.854 669.32C883.814 669.32 885.414 669.93 886.654 671.15C887.894 672.35 888.514 674.1 888.514 676.4V686H886.444V676.64C886.444 674.86 885.994 673.5 885.094 672.56C884.214 671.62 883.004 671.15 881.464 671.15C879.884 671.15 878.624 671.65 877.684 672.65C876.744 673.65 876.274 675.12 876.274 677.06V686H874.174V669.62H876.274V672.41C876.794 671.41 877.544 670.65 878.524 670.13C879.504 669.59 880.614 669.32 881.854 669.32ZM907.979 676.97C907.979 677.69 907.959 678.24 907.919 678.62H894.329C894.389 679.86 894.689 680.92 895.229 681.8C895.769 682.68 896.479 683.35 897.359 683.81C898.239 684.25 899.199 684.47 900.239 684.47C901.599 684.47 902.739 684.14 903.659 683.48C904.599 682.82 905.219 681.93 905.519 680.81H907.739C907.339 682.41 906.479 683.72 905.159 684.74C903.859 685.74 902.219 686.24 900.239 686.24C898.699 686.24 897.319 685.9 896.099 685.22C894.879 684.52 893.919 683.54 893.219 682.28C892.539 681 892.199 679.51 892.199 677.81C892.199 676.11 892.539 674.62 893.219 673.34C893.899 672.06 894.849 671.08 896.069 670.4C897.289 669.72 898.679 669.38 900.239 669.38C901.799 669.38 903.159 669.72 904.319 670.4C905.499 671.08 906.399 672 907.019 673.16C907.659 674.3 907.979 675.57 907.979 676.97ZM905.849 676.91C905.869 675.69 905.619 674.65 905.099 673.79C904.599 672.93 903.909 672.28 903.029 671.84C902.149 671.4 901.189 671.18 900.149 671.18C898.589 671.18 897.259 671.68 896.159 672.68C895.059 673.68 894.449 675.09 894.329 676.91H905.849Z" fill="black"/>
<path fill-rule="evenodd" clip-rule="evenodd" d="M957.5 18.5C542.424 -252.366 -13.5191 -367.513 -69.419 -378.605C-72.5643 -379.229 -75.4411 -378.349 -77.9469 -376.348L-880.682 264.62C-885.808 268.713 -886.235 276.355 -881.596 280.994L1005.06 2167.65C1009.36 2171.95 1016.32 2171.95 1020.62 2167.65L1951.13 1237.14C1957.62 1230.65 1954.16 1219.47 1945.07 1218.19C1822 1200.88 1219.36 1104.02 1038.33 845.731C1036.23 842.738 1032.86 840.965 1029.21 840.965H127.875C165.932 826.592 196.865 791.887 196.865 717.036C196.865 522.536 525.799 425.541 640.5 462C695.644 479.528 731.917 503.293 764.132 524.399C813.705 556.877 853.669 583.06 938 570.536C1016.64 558.857 1027.63 506.061 1039.92 446.999C1047.26 411.731 1055.07 374.228 1078.02 341.911C1083.73 333.875 1078.4 321.429 1068.54 321.429H480.135C476.821 321.429 474.135 318.743 474.135 315.429V210.429C474.135 207.116 476.821 204.429 480.135 204.429H1075.24C1082.38 204.429 1087.64 197.715 1085.66 190.846C1065.89 122.214 1027.29 64.0438 957.5 18.5ZM8.11279 840.965C35.5293 847.986 86.0125 856.776 127.875 840.965H8.11279ZM8.11279 840.965C3.77735 839.855 0.0187081 838.789 -3.03783 837.872C-7.42057 836.557 -10.5759 840.965 -6.00006 840.965V840.965H8.11279Z" fill="#0ABB66"/>
<rect x="772.5" y="21.5" width="135" height="135" rx="16.5" fill="#0ABB66"/>
<rect x="772.5" y="21.5" width="135" height="135" rx="16.5" stroke="white" stroke-width="7"/>
<g filter="url(#filter0_d_4_118)">
<path d="M877 44.3843V107.714C877 111.304 875.075 114.619 871.956 116.399L844.475 132.081C841.319 133.882 837.433 133.829 834.327 131.943L808.808 116.441C805.823 114.628 804 111.388 804 107.895V44.3843C804 43.0675 805.114 42 806.489 42L838.13 44.0759L843.062 44.0763C843.077 44.076 843.092 44.0759 843.107 44.0759L874.511 42C875.886 42 877 43.0675 877 44.3843Z" fill="#B6EBD1"/>
</g>
<path fill-rule="evenodd" clip-rule="evenodd" d="M1361.78 595.142L1317.15 591.041L1316.38 599.629L1362.14 603.834L1302 645.316L1306.81 652.44L1361.76 614.531L1333.56 665.449L1341 669.663L1369.65 617.936L1368.51 663.088L1377.04 663.308L1378.19 617.589L1408.43 677L1416.02 673.054L1384.44 611.027L1465.95 655.475L1470 647.885L1393.51 606.173L1442.2 609.288L1442.74 600.682L1386.61 597.091L1440.73 558.065L1435.78 551.044L1383.53 588.715L1416.2 504.136L1408.25 501L1374.6 588.145L1356.56 535.402L1348.5 538.22L1365.02 586.533L1310.65 537.939L1305 544.4L1361.78 595.142Z" fill="black"/>
<g filter="url(#filter1_d_4_118)">
<path d="M877 44.3843V107.714C877 111.304 875.075 114.619 871.956 116.399L844.475 132.081C841.319 133.882 837.433 133.829 834.327 131.943L808.808 116.441C805.823 114.628 804 111.388 804 107.895V44.3843C804 43.0675 805.114 42 806.489 42L838.13 44.0759L843.062 44.0763C843.077 44.076 843.092 44.0759 843.107 44.0759L874.511 42C875.886 42 877 43.0675 877 44.3843Z" fill="#B6EBD1"/>
</g>
<path fill-rule="evenodd" clip-rule="evenodd" d="M1145.87 206.936L1137.52 218.088L1134.9 216.126L1143.26 204.973L1145.87 206.936ZM1163.37 212.914L1146.09 229.109L1143.85 226.722L1161.13 210.528L1163.37 212.914ZM1189.23 218.87L1154.27 240.278L1152.56 237.488L1187.52 216.08L1189.23 218.87ZM1183.12 246.724L1159.47 251.918L1158.76 248.724L1182.42 243.53L1183.12 246.724ZM1176.01 265.061L1160.04 266.327L1159.78 263.067L1175.75 261.801L1176.01 265.061Z" fill="black"/>
</g>
<defs>
<filter id="filter0_d_4_118" x="800" y="38" width="81" height="99.3959" filterUnits="userSpaceOnUse" color-interpolation-filters="sRGB">
<feFlood flood-opacity="0" result="BackgroundImageFix"/>
<feColorMatrix in="SourceAlpha" type="matrix" values="0 0 0 0 0 0 0 0 0 0 0 0 0 0 0 0 0 0 127 0" result="hardAlpha"/>
<feOffset/>
<feGaussianBlur stdDeviation="2"/>
<feComposite in2="hardAlpha" operator="out"/>
<feColorMatrix type="matrix" values="0 0 0 0 0 0 0 0 0 0 0 0 0 0 0 0 0 0 0.5 0"/>
<feBlend mode="normal" in2="BackgroundImageFix" result="effect1_dropShadow_4_118"/>
<feBlend mode="normal" in="SourceGraphic" in2="effect1_dropShadow_4_118" result="shape"/>
</filter>
<filter id="filter1_d_4_118" x="800" y="38" width="81" height="99.3959" filterUnits="userSpaceOnUse" color-interpolation-filters="sRGB">
<feFlood flood-opacity="0" result="BackgroundImageFix"/>
<feColorMatrix in="SourceAlpha" type="matrix" values="0 0 0 0 0 0 0 0 0 0 0 0 0 0 0 0 0 0 127 0" result="hardAlpha"/>
<feOffset/>
<feGaussianBlur stdDeviation="2"/>
<feComposite in2="hardAlpha" operator="out"/>
<feColorMatrix type="matrix" values="0 0 0 0 0 0 0 0 0 0 0 0 0 0 0 0 0 0 0.5 0"/>
<feBlend mode="normal" in2="BackgroundImageFix" result="effect1_dropShadow_4_118"/>
<feBlend mode="normal" in="SourceGraphic" in2="effect1_dropShadow_4_118" result="shape"/>
</filter>
<clipPath id="clip0_4_118">
<rect width="1680" height="747" fill="white"/>
</clipPath>
</defs>
</svg>
