<svg width="1680" height="747" viewBox="0 0 1680 747" fill="none" xmlns="http://www.w3.org/2000/svg">
<g clip-path="url(#clip0_2_40)">
<rect width="1680" height="747" fill="white"/>
<rect x="64" y="-682" width="2691.44" height="1349.58" transform="rotate(45 64 -682)" fill="#0ABB66"/>
<g clip-path="url(#clip1_2_40)">
<rect x="775" y="18" width="128" height="128" rx="17" fill="#E9FBFF"/>
<path fill-rule="evenodd" clip-rule="evenodd" d="M824.547 220.583L895.583 149.547L867.21 121.174L874.128 117.042C877.149 115.238 879 111.977 879 108.457V30.8714C879 29.2856 877.718 28 876.136 28L840 30.5C839.983 30.5 839.965 30.5001 839.948 30.5005L834.273 30.5L797.864 28C796.282 28 795 29.2856 795 30.8714V48.9634L766.037 20L695 91.0366L824.547 220.583ZM867.21 121.174L795 48.9634V108.64C795 112.061 796.748 115.244 799.635 117.079L830.487 136.693C833.676 138.721 837.736 138.777 840.98 136.84L867.21 121.174Z" fill="#0ABB66"/>
</g>
<rect x="474.135" y="204.43" width="705" height="117" rx="6" fill="white"/>
<path d="M549.819 248.03H538.899V240.47H569.379V248.03H558.579V280.43H549.819V248.03ZM575.401 240.47H584.161V255.95H601.141V240.47H609.961V280.43H601.141V263.39H584.161V280.43H575.401V240.47ZM618.35 240.47H642.65V248.03H626.93V256.01H639.95V263.33H626.93V272.87H642.65V280.43H618.35V240.47ZM678.858 281.21C675.538 281.21 672.618 280.51 670.098 279.11C667.578 277.71 665.618 275.75 664.218 273.23C662.858 270.67 662.178 267.73 662.178 264.41V240.47H670.938V263.75C670.938 266.71 671.638 269.07 673.038 270.83C674.478 272.55 676.418 273.41 678.858 273.41C681.298 273.41 683.238 272.55 684.678 270.83C686.118 269.07 686.838 266.71 686.838 263.75V240.47H695.538V264.41C695.538 267.73 694.838 270.67 693.438 273.23C692.078 275.75 690.138 277.71 687.618 279.11C685.098 280.51 682.178 281.21 678.858 281.21ZM703.956 240.47H714.156L730.716 268.49V240.47H738.696V280.43H728.616L711.936 252.23V280.43H703.956V240.47ZM747.561 240.47H756.261V280.43H747.561V240.47ZM761.528 240.47H771.128L780.608 270.95L790.028 240.47H798.968L785.528 280.43H775.028L761.528 240.47ZM803.741 240.47H828.041V248.03H812.321V256.01H825.341V263.33H812.321V272.87H828.041V280.43H803.741V240.47ZM835.317 240.47C836.517 240.43 838.757 240.41 842.037 240.41C845.357 240.41 847.617 240.43 848.817 240.47C853.377 240.63 856.777 241.75 859.017 243.83C861.257 245.87 862.377 248.63 862.377 252.11C862.377 255.07 861.617 257.59 860.097 259.67C858.617 261.71 856.537 263.05 853.857 263.69C854.697 264.37 855.557 265.31 856.437 266.51C857.317 267.67 858.537 269.49 860.097 271.97C861.737 274.57 863.397 277.39 865.077 280.43H854.997L848.217 267.83C847.497 266.51 846.837 265.69 846.237 265.37C845.677 265.01 844.817 264.83 843.657 264.83V280.43H835.317V240.47ZM847.377 258.17C849.417 258.17 851.017 257.65 852.177 256.61C853.377 255.57 853.977 254.17 853.977 252.41C853.977 250.81 853.457 249.59 852.417 248.75C851.377 247.91 849.857 247.49 847.857 247.49H843.657V258.17H847.377ZM879.692 281.21C877.372 281.21 875.152 280.95 873.032 280.43C870.952 279.91 869.152 279.21 867.632 278.33L868.352 270.29C870.152 271.41 872.032 272.29 873.992 272.93C875.992 273.53 877.832 273.83 879.512 273.83C881.432 273.83 882.992 273.43 884.192 272.63C885.392 271.83 885.992 270.77 885.992 269.45C885.992 268.37 885.592 267.55 884.792 266.99C883.992 266.39 882.732 265.75 881.012 265.07L879.572 264.47C879.372 264.39 879.152 264.31 878.912 264.23C878.672 264.11 878.392 263.99 878.072 263.87C875.832 262.95 874.032 262.09 872.672 261.29C871.312 260.45 870.132 259.29 869.132 257.81C868.172 256.33 867.692 254.41 867.692 252.05C867.692 248.21 868.992 245.19 871.592 242.99C874.192 240.79 877.812 239.69 882.452 239.69C885.972 239.69 889.572 240.41 893.252 241.85L891.932 249.77C890.452 248.93 888.852 248.27 887.132 247.79C885.452 247.31 883.852 247.07 882.332 247.07C880.452 247.07 878.992 247.45 877.952 248.21C876.912 248.93 876.392 249.91 876.392 251.15C876.392 252.23 876.752 253.07 877.472 253.67C878.192 254.27 879.352 254.91 880.952 255.59L883.412 256.55C885.732 257.43 887.652 258.29 889.172 259.13C890.692 259.97 891.992 261.19 893.072 262.79C894.152 264.35 894.692 266.39 894.692 268.91C894.692 272.79 893.372 275.81 890.732 277.97C888.092 280.13 884.412 281.21 879.692 281.21ZM911.867 240.47H922.307L937.127 280.43H928.127L924.887 271.31H909.167L906.107 280.43H897.227L911.867 240.47ZM922.307 263.87L916.907 248.57L911.687 263.87H922.307ZM941.729 240.47H950.429V272.87H964.829V280.43H941.729V240.47ZM978.939 240.47H988.179L995.139 269.21L1002.28 240.71L1013.5 239.87L1021.06 270.05L1028.08 240.47H1036.66L1025.86 280.43H1015.36L1007.62 248.81L999.579 280.43H989.199L978.939 240.47ZM1050.26 240.47H1060.7L1075.52 280.43H1066.52L1063.28 271.31H1047.56L1044.5 280.43H1035.62L1050.26 240.47ZM1060.7 263.87L1055.3 248.57L1050.08 263.87H1060.7ZM1080.13 240.47H1088.83V272.87H1103.23V280.43H1080.13V240.47ZM1109.25 240.47H1117.95V272.87H1132.35V280.43H1109.25V240.47Z" fill="black"/>
<rect x="147.135" y="529.43" width="1359" height="287" rx="6" fill="white"/>
<path d="M389.549 629.33C385.109 629.33 381.269 628.55 378.029 626.99C374.829 625.39 372.369 623.11 370.649 620.15C368.929 617.19 368.069 613.67 368.069 609.59C368.069 605.31 368.969 601.53 370.769 598.25C372.609 594.97 375.169 592.43 378.449 590.63C381.769 588.83 385.589 587.93 389.909 587.93C392.389 587.93 394.729 588.21 396.929 588.77C399.169 589.33 401.149 590.13 402.869 591.17L400.769 598.37C399.209 597.41 397.469 596.67 395.549 596.15C393.629 595.59 391.749 595.31 389.909 595.31C387.269 595.31 384.929 595.89 382.889 597.05C380.889 598.17 379.329 599.77 378.209 601.85C377.129 603.89 376.589 606.27 376.589 608.99C376.589 612.99 377.789 616.15 380.189 618.47C382.629 620.75 385.949 621.89 390.149 621.89C391.829 621.89 393.389 621.77 394.829 621.53V613.25H389.789V606.23H402.809V626.99C398.689 628.55 394.269 629.33 389.549 629.33ZM414.178 584.63H423.838V592.43H414.178V584.63ZM409.498 621.17H415.258V604.79H409.498V597.53H423.718V621.17H428.878V628.43H409.498V621.17ZM430.005 597.65L439.245 596.81L446.085 619.07L452.625 597.53H461.685L450.825 628.43H440.925L430.005 597.65ZM480.119 629.33C475.119 629.33 471.179 627.89 468.299 625.01C465.459 622.13 464.039 618.13 464.039 613.01C464.039 609.69 464.659 606.81 465.899 604.37C467.139 601.89 468.879 599.99 471.119 598.67C473.399 597.35 476.059 596.69 479.099 596.69C483.579 596.69 487.019 598.13 489.419 601.01C491.819 603.89 493.019 608.05 493.019 613.49C493.019 614.41 492.999 615.09 492.959 615.53H472.559C472.959 617.65 473.879 619.27 475.319 620.39C476.759 621.47 478.699 622.01 481.139 622.01C482.619 622.01 484.159 621.83 485.759 621.47C487.359 621.07 488.759 620.55 489.959 619.91L491.339 626.69C489.739 627.53 487.959 628.17 485.999 628.61C484.079 629.09 482.119 629.33 480.119 629.33ZM484.919 609.17C484.799 607.45 484.199 606.09 483.119 605.09C482.039 604.05 480.599 603.53 478.799 603.53C477.079 603.53 475.659 604.03 474.539 605.03C473.459 606.03 472.779 607.41 472.499 609.17H484.919ZM520.299 629.33C517.099 629.33 514.559 627.97 512.679 625.25C510.799 622.53 509.859 618.83 509.859 614.15C509.859 608.47 511.299 604.15 514.179 601.19C517.059 598.19 521.199 596.69 526.599 596.69C529.639 596.69 533.199 597.17 537.279 598.13V628.43H529.239L529.419 623.51H529.179C528.139 625.39 526.859 626.83 525.339 627.83C523.859 628.83 522.179 629.33 520.299 629.33ZM522.099 621.95C523.339 621.95 524.559 621.29 525.759 619.97C526.959 618.65 528.079 616.89 529.119 614.69V604.61C527.839 604.25 526.559 604.07 525.279 604.07C522.879 604.07 521.059 604.89 519.819 606.53C518.619 608.17 518.019 610.59 518.019 613.79C518.019 616.31 518.379 618.31 519.099 619.79C519.819 621.23 520.819 621.95 522.099 621.95ZM559.45 629.33C554.33 629.33 550.35 627.97 547.51 625.25C544.71 622.53 543.31 618.69 543.31 613.73C543.31 610.37 543.97 607.41 545.29 604.85C546.61 602.25 548.47 600.25 550.87 598.85C553.27 597.41 556.05 596.69 559.21 596.69C560.69 596.69 562.23 596.87 563.83 597.23C565.47 597.55 566.73 597.93 567.61 598.37L565.99 605.51C565.07 605.07 564.05 604.73 562.93 604.49C561.85 604.21 560.83 604.07 559.87 604.07C557.39 604.07 555.39 604.91 553.87 606.59C552.39 608.27 551.65 610.49 551.65 613.25C551.65 616.05 552.41 618.21 553.93 619.73C555.49 621.25 557.69 622.01 560.53 622.01C562.41 622.01 564.43 621.65 566.59 620.93L567.85 627.77C565.25 628.81 562.45 629.33 559.45 629.33ZM587.985 629.33C582.865 629.33 578.885 627.97 576.045 625.25C573.245 622.53 571.845 618.69 571.845 613.73C571.845 610.37 572.505 607.41 573.825 604.85C575.145 602.25 577.005 600.25 579.405 598.85C581.805 597.41 584.585 596.69 587.745 596.69C589.225 596.69 590.765 596.87 592.365 597.23C594.005 597.55 595.265 597.93 596.145 598.37L594.525 605.51C593.605 605.07 592.585 604.73 591.465 604.49C590.385 604.21 589.365 604.07 588.405 604.07C585.925 604.07 583.925 604.91 582.405 606.59C580.925 608.27 580.185 610.49 580.185 613.25C580.185 616.05 580.945 618.21 582.465 619.73C584.025 621.25 586.225 622.01 589.065 622.01C590.945 622.01 592.965 621.65 595.125 620.93L596.385 627.77C593.785 628.81 590.985 629.33 587.985 629.33ZM616.701 629.33C611.701 629.33 607.761 627.89 604.881 625.01C602.041 622.13 600.621 618.13 600.621 613.01C600.621 609.69 601.241 606.81 602.481 604.37C603.721 601.89 605.461 599.99 607.701 598.67C609.981 597.35 612.641 596.69 615.681 596.69C620.161 596.69 623.601 598.13 626.001 601.01C628.401 603.89 629.601 608.05 629.601 613.49C629.601 614.41 629.581 615.09 629.541 615.53H609.141C609.541 617.65 610.461 619.27 611.901 620.39C613.341 621.47 615.281 622.01 617.721 622.01C619.201 622.01 620.741 621.83 622.341 621.47C623.941 621.07 625.341 620.55 626.541 619.91L627.921 626.69C626.321 627.53 624.541 628.17 622.581 628.61C620.661 629.09 618.701 629.33 616.701 629.33ZM621.501 609.17C621.381 607.45 620.781 606.09 619.701 605.09C618.621 604.05 617.181 603.53 615.381 603.53C613.661 603.53 612.241 604.03 611.121 605.03C610.041 606.03 609.361 607.41 609.081 609.17H621.501ZM644.869 629.33C642.909 629.33 641.009 629.13 639.169 628.73C637.369 628.33 635.829 627.79 634.549 627.11L635.329 619.91C636.689 620.75 638.189 621.43 639.829 621.95C641.469 622.47 643.009 622.73 644.449 622.73C645.809 622.73 646.949 622.49 647.869 622.01C648.789 621.49 649.249 620.75 649.249 619.79C649.249 619.03 648.929 618.45 648.289 618.05C647.649 617.61 646.429 617.07 644.629 616.43L643.009 615.83C641.289 615.19 639.889 614.59 638.809 614.03C637.729 613.43 636.749 612.53 635.869 611.33C634.989 610.13 634.549 608.55 634.549 606.59C634.549 603.47 635.709 601.05 638.029 599.33C640.389 597.57 643.449 596.69 647.209 596.69C650.169 596.69 653.289 597.27 656.569 598.43L655.429 605.57C654.269 604.89 652.949 604.35 651.469 603.95C650.029 603.51 648.669 603.29 647.389 603.29C646.069 603.29 645.009 603.51 644.209 603.95C643.449 604.39 643.069 605.03 643.069 605.87C643.069 606.67 643.389 607.27 644.029 607.67C644.669 608.07 645.749 608.53 647.269 609.05C648.469 609.49 649.169 609.75 649.369 609.83C651.049 610.51 652.449 611.17 653.569 611.81C654.689 612.45 655.669 613.41 656.509 614.69C657.349 615.93 657.769 617.53 657.769 619.49C657.769 622.77 656.589 625.23 654.229 626.87C651.869 628.51 648.749 629.33 644.869 629.33ZM672.701 629.33C670.741 629.33 668.841 629.13 667.001 628.73C665.201 628.33 663.661 627.79 662.381 627.11L663.161 619.91C664.521 620.75 666.021 621.43 667.661 621.95C669.301 622.47 670.841 622.73 672.281 622.73C673.641 622.73 674.781 622.49 675.701 622.01C676.621 621.49 677.081 620.75 677.081 619.79C677.081 619.03 676.761 618.45 676.121 618.05C675.481 617.61 674.261 617.07 672.461 616.43L670.841 615.83C669.121 615.19 667.721 614.59 666.641 614.03C665.561 613.43 664.581 612.53 663.701 611.33C662.821 610.13 662.381 608.55 662.381 606.59C662.381 603.47 663.541 601.05 665.861 599.33C668.221 597.57 671.281 596.69 675.041 596.69C678.001 596.69 681.121 597.27 684.401 598.43L683.261 605.57C682.101 604.89 680.781 604.35 679.301 603.95C677.861 603.51 676.501 603.29 675.221 603.29C673.901 603.29 672.841 603.51 672.041 603.95C671.281 604.39 670.901 605.03 670.901 605.87C670.901 606.67 671.221 607.27 671.861 607.67C672.501 608.07 673.581 608.53 675.101 609.05C676.301 609.49 677.001 609.75 677.201 609.83C678.881 610.51 680.281 611.17 681.401 611.81C682.521 612.45 683.501 613.41 684.341 614.69C685.181 615.93 685.601 617.53 685.601 619.49C685.601 622.77 684.421 625.23 682.061 626.87C679.701 628.51 676.581 629.33 672.701 629.33ZM715.238 629.33C712.358 629.33 710.118 628.61 708.518 627.17C706.958 625.69 706.178 623.61 706.178 620.93V604.79H701.378V597.53H706.178V590.93C709.018 590.45 711.818 590.09 714.578 589.85V597.53H722.378V604.79H714.578V619.37C714.578 620.21 714.818 620.85 715.298 621.29C715.818 621.73 716.538 621.95 717.458 621.95C718.578 621.95 719.858 621.69 721.298 621.17L723.158 627.53C720.598 628.73 717.958 629.33 715.238 629.33ZM741.967 629.33C738.847 629.33 736.087 628.65 733.687 627.29C731.327 625.93 729.487 624.03 728.167 621.59C726.847 619.11 726.187 616.25 726.187 613.01C726.187 609.77 726.827 606.93 728.107 604.49C729.427 602.01 731.267 600.09 733.627 598.73C736.027 597.37 738.787 596.69 741.907 596.69C745.027 596.69 747.767 597.37 750.127 598.73C752.527 600.05 754.367 601.93 755.647 604.37C756.967 606.81 757.627 609.63 757.627 612.83C757.627 616.07 756.967 618.95 755.647 621.47C754.367 623.95 752.527 625.89 750.127 627.29C747.767 628.65 745.047 629.33 741.967 629.33ZM741.907 622.01C744.067 622.01 745.787 621.19 747.067 619.55C748.387 617.87 749.047 615.67 749.047 612.95C749.047 610.23 748.387 608.07 747.067 606.47C745.787 604.83 744.067 604.01 741.907 604.01C739.747 604.01 738.007 604.83 736.687 606.47C735.407 608.07 734.767 610.23 734.767 612.95C734.767 615.67 735.407 617.87 736.687 619.55C738.007 621.19 739.747 622.01 741.907 622.01ZM784.37 614.99V628.43H775.91V584.57H784.37V608.81L794.03 597.53H804.05L791.69 611.39L804.71 628.07L795.53 629.33L784.37 614.99ZM808.605 597.53H816.885V602.87C818.165 600.75 819.645 599.19 821.325 598.19C823.005 597.19 824.965 596.69 827.205 596.69C830.525 596.69 833.125 597.69 835.005 599.69C836.885 601.65 837.825 604.39 837.825 607.91V628.43H829.365V609.23C829.365 607.63 828.965 606.39 828.165 605.51C827.365 604.59 826.285 604.13 824.925 604.13C823.325 604.13 821.805 604.73 820.365 605.93C818.925 607.13 817.825 608.65 817.065 610.49V628.43H808.605V597.53ZM859.916 629.33C856.796 629.33 854.036 628.65 851.636 627.29C849.276 625.93 847.436 624.03 846.116 621.59C844.796 619.11 844.136 616.25 844.136 613.01C844.136 609.77 844.776 606.93 846.056 604.49C847.376 602.01 849.216 600.09 851.576 598.73C853.976 597.37 856.736 596.69 859.856 596.69C862.976 596.69 865.716 597.37 868.076 598.73C870.476 600.05 872.316 601.93 873.596 604.37C874.916 606.81 875.576 609.63 875.576 612.83C875.576 616.07 874.916 618.95 873.596 621.47C872.316 623.95 870.476 625.89 868.076 627.29C865.716 628.65 862.996 629.33 859.916 629.33ZM859.856 622.01C862.016 622.01 863.736 621.19 865.016 619.55C866.336 617.87 866.996 615.67 866.996 612.95C866.996 610.23 866.336 608.07 865.016 606.47C863.736 604.83 862.016 604.01 859.856 604.01C857.696 604.01 855.956 604.83 854.636 606.47C853.356 608.07 852.716 610.23 852.716 612.95C852.716 615.67 853.356 617.87 854.636 619.55C855.956 621.19 857.696 622.01 859.856 622.01ZM878.074 597.53H886.714L892.234 617.99L898.174 597.71L907.714 596.93L914.134 618.59L919.774 597.53H927.814L918.394 628.43H909.154L902.794 605.99L896.134 628.43H887.074L878.074 597.53ZM929.627 621.17H935.087V591.83H929.927V584.63H943.547V621.17H949.007V628.43H929.627V621.17ZM968.439 629.33C963.439 629.33 959.499 627.89 956.619 625.01C953.779 622.13 952.359 618.13 952.359 613.01C952.359 609.69 952.979 606.81 954.219 604.37C955.459 601.89 957.199 599.99 959.439 598.67C961.719 597.35 964.379 596.69 967.419 596.69C971.899 596.69 975.339 598.13 977.739 601.01C980.139 603.89 981.339 608.05 981.339 613.49C981.339 614.41 981.319 615.09 981.279 615.53H960.879C961.279 617.65 962.199 619.27 963.639 620.39C965.079 621.47 967.019 622.01 969.459 622.01C970.939 622.01 972.479 621.83 974.079 621.47C975.679 621.07 977.079 620.55 978.279 619.91L979.659 626.69C978.059 627.53 976.279 628.17 974.319 628.61C972.399 629.09 970.439 629.33 968.439 629.33ZM973.239 609.17C973.119 607.45 972.519 606.09 971.439 605.09C970.359 604.05 968.919 603.53 967.119 603.53C965.399 603.53 963.979 604.03 962.859 605.03C961.779 606.03 961.099 607.41 960.819 609.17H973.239ZM997.62 629.33C994.14 629.33 991.4 628.01 989.4 625.37C987.44 622.69 986.46 618.97 986.46 614.21C986.46 608.57 987.92 604.25 990.84 601.25C993.8 598.21 998 596.69 1003.44 596.69C1004.12 596.69 1005.14 596.73 1006.5 596.81V584.63H1014.84V628.43H1006.62L1006.8 624.41H1006.56C1005.52 626.01 1004.24 627.23 1002.72 628.07C1001.24 628.91 999.54 629.33 997.62 629.33ZM999.54 621.95C1000.82 621.95 1002.06 621.41 1003.26 620.33C1004.46 619.21 1005.54 617.63 1006.5 615.59V604.61C1005.14 604.25 1003.84 604.07 1002.6 604.07C1000.08 604.07 998.16 604.89 996.84 606.53C995.56 608.17 994.92 610.57 994.92 613.73C994.92 616.29 995.32 618.31 996.12 619.79C996.96 621.23 998.1 621.95 999.54 621.95ZM1032.61 642.05C1029.05 642.05 1025.57 641.59 1022.17 640.67L1023.79 633.23C1027.63 634.35 1030.83 634.91 1033.39 634.91C1035.43 634.91 1036.99 634.59 1038.07 633.95C1039.19 633.31 1039.97 632.31 1040.41 630.95C1040.89 629.59 1041.17 627.73 1041.25 625.37H1041.07C1039.95 626.65 1038.65 627.63 1037.17 628.31C1035.69 628.99 1034.07 629.33 1032.31 629.33C1028.79 629.33 1026.03 628.01 1024.03 625.37C1022.07 622.69 1021.09 618.99 1021.09 614.27C1021.09 608.55 1022.55 604.19 1025.47 601.19C1028.43 598.19 1032.65 596.69 1038.13 596.69C1041.29 596.69 1045.05 597.17 1049.41 598.13C1049.49 606.37 1049.53 612.57 1049.53 616.73C1049.53 620.45 1049.51 623.25 1049.47 625.13C1049.39 630.81 1047.95 635.05 1045.15 637.85C1042.39 640.65 1038.21 642.05 1032.61 642.05ZM1034.53 621.95C1035.77 621.95 1036.95 621.49 1038.07 620.57C1039.23 619.65 1040.25 618.35 1041.13 616.67L1041.07 604.61C1039.75 604.25 1038.47 604.07 1037.23 604.07C1034.71 604.07 1032.79 604.89 1031.47 606.53C1030.19 608.17 1029.55 610.55 1029.55 613.67C1029.55 616.27 1029.97 618.31 1030.81 619.79C1031.69 621.23 1032.93 621.95 1034.53 621.95ZM1071.8 629.33C1066.8 629.33 1062.86 627.89 1059.98 625.01C1057.14 622.13 1055.72 618.13 1055.72 613.01C1055.72 609.69 1056.34 606.81 1057.58 604.37C1058.82 601.89 1060.56 599.99 1062.8 598.67C1065.08 597.35 1067.74 596.69 1070.78 596.69C1075.26 596.69 1078.7 598.13 1081.1 601.01C1083.5 603.89 1084.7 608.05 1084.7 613.49C1084.7 614.41 1084.68 615.09 1084.64 615.53H1064.24C1064.64 617.65 1065.56 619.27 1067 620.39C1068.44 621.47 1070.38 622.01 1072.82 622.01C1074.3 622.01 1075.84 621.83 1077.44 621.47C1079.04 621.07 1080.44 620.55 1081.64 619.91L1083.02 626.69C1081.42 627.53 1079.64 628.17 1077.68 628.61C1075.76 629.09 1073.8 629.33 1071.8 629.33ZM1076.6 609.17C1076.48 607.45 1075.88 606.09 1074.8 605.09C1073.72 604.05 1072.28 603.53 1070.48 603.53C1068.76 603.53 1067.34 604.03 1066.22 605.03C1065.14 606.03 1064.46 607.41 1064.18 609.17H1076.6ZM1111.98 629.33C1108.78 629.33 1106.24 627.97 1104.36 625.25C1102.48 622.53 1101.54 618.83 1101.54 614.15C1101.54 608.47 1102.98 604.15 1105.86 601.19C1108.74 598.19 1112.88 596.69 1118.28 596.69C1121.32 596.69 1124.88 597.17 1128.96 598.13V628.43H1120.92L1121.1 623.51H1120.86C1119.82 625.39 1118.54 626.83 1117.02 627.83C1115.54 628.83 1113.86 629.33 1111.98 629.33ZM1113.78 621.95C1115.02 621.95 1116.24 621.29 1117.44 619.97C1118.64 618.65 1119.76 616.89 1120.8 614.69V604.61C1119.52 604.25 1118.24 604.07 1116.96 604.07C1114.56 604.07 1112.74 604.89 1111.5 606.53C1110.3 608.17 1109.7 610.59 1109.7 613.79C1109.7 616.31 1110.06 618.31 1110.78 619.79C1111.5 621.23 1112.5 621.95 1113.78 621.95ZM1137.14 597.53H1145.42V602.87C1146.7 600.75 1148.18 599.19 1149.86 598.19C1151.54 597.19 1153.5 596.69 1155.74 596.69C1159.06 596.69 1161.66 597.69 1163.54 599.69C1165.42 601.65 1166.36 604.39 1166.36 607.91V628.43H1157.9V609.23C1157.9 607.63 1157.5 606.39 1156.7 605.51C1155.9 604.59 1154.82 604.13 1153.46 604.13C1151.86 604.13 1150.34 604.73 1148.9 605.93C1147.46 607.13 1146.36 608.65 1145.6 610.49V628.43H1137.14V597.53ZM1183.83 629.33C1180.35 629.33 1177.61 628.01 1175.61 625.37C1173.65 622.69 1172.67 618.97 1172.67 614.21C1172.67 608.57 1174.13 604.25 1177.05 601.25C1180.01 598.21 1184.21 596.69 1189.65 596.69C1190.33 596.69 1191.35 596.73 1192.71 596.81V584.63H1201.05V628.43H1192.83L1193.01 624.41H1192.77C1191.73 626.01 1190.45 627.23 1188.93 628.07C1187.45 628.91 1185.75 629.33 1183.83 629.33ZM1185.75 621.95C1187.03 621.95 1188.27 621.41 1189.47 620.33C1190.67 619.21 1191.75 617.63 1192.71 615.59V604.61C1191.35 604.25 1190.05 604.07 1188.81 604.07C1186.29 604.07 1184.37 604.89 1183.05 606.53C1181.77 608.17 1181.13 610.57 1181.13 613.73C1181.13 616.29 1181.53 618.31 1182.33 619.79C1183.17 621.23 1184.31 621.95 1185.75 621.95ZM413.325 712.37C412.205 713.65 410.905 714.63 409.425 715.31C407.945 715.99 406.325 716.33 404.565 716.33C401.045 716.33 398.285 715.01 396.285 712.37C394.325 709.69 393.345 705.99 393.345 701.27C393.345 695.59 394.805 691.25 397.725 688.25C400.685 685.21 404.905 683.69 410.385 683.69C413.665 683.69 417.425 684.15 421.665 685.07L421.725 728.51H413.385L413.325 712.37ZM406.785 708.95C408.025 708.95 409.205 708.49 410.325 707.57C411.485 706.65 412.505 705.35 413.385 703.67L413.325 691.61C412.005 691.25 410.725 691.07 409.485 691.07C406.965 691.07 405.045 691.89 403.725 693.53C402.445 695.17 401.805 697.55 401.805 700.67C401.805 703.27 402.225 705.31 403.065 706.79C403.945 708.23 405.185 708.95 406.785 708.95ZM440.027 716.27C436.747 716.27 434.167 715.27 432.287 713.27C430.407 711.27 429.467 708.53 429.467 705.05V684.53H437.927V703.67C437.927 705.31 438.327 706.59 439.127 707.51C439.927 708.39 441.007 708.83 442.367 708.83C443.727 708.83 445.027 708.39 446.267 707.51C447.547 706.63 448.607 705.45 449.447 703.97V684.53H457.907V715.43H449.447V711.35C448.287 712.91 446.947 714.13 445.427 715.01C443.947 715.85 442.147 716.27 440.027 716.27ZM474.625 716.33C471.425 716.33 468.885 714.97 467.005 712.25C465.125 709.53 464.185 705.83 464.185 701.15C464.185 695.47 465.625 691.15 468.505 688.19C471.385 685.19 475.525 683.69 480.925 683.69C483.965 683.69 487.525 684.17 491.605 685.13V715.43H483.565L483.745 710.51H483.505C482.465 712.39 481.185 713.83 479.665 714.83C478.185 715.83 476.505 716.33 474.625 716.33ZM476.425 708.95C477.665 708.95 478.885 708.29 480.085 706.97C481.285 705.65 482.405 703.89 483.445 701.69V691.61C482.165 691.25 480.885 691.07 479.605 691.07C477.205 691.07 475.385 691.89 474.145 693.53C472.945 695.17 472.345 697.59 472.345 700.79C472.345 703.31 472.705 705.31 473.425 706.79C474.145 708.23 475.145 708.95 476.425 708.95ZM497.411 708.17H502.871V678.83H497.711V671.63H511.331V708.17H516.791V715.43H497.411V708.17ZM525.945 671.63H535.605V679.43H525.945V671.63ZM521.265 708.17H527.025V691.79H521.265V684.53H535.485V708.17H540.645V715.43H521.265V708.17ZM556.713 716.33C553.833 716.33 551.593 715.61 549.993 714.17C548.433 712.69 547.653 710.61 547.653 707.93V691.79H542.853V684.53H547.653V677.93C550.493 677.45 553.293 677.09 556.053 676.85V684.53H563.853V691.79H556.053V706.37C556.053 707.21 556.293 707.85 556.773 708.29C557.293 708.73 558.013 708.95 558.933 708.95C560.053 708.95 561.333 708.69 562.773 708.17L564.633 714.53C562.073 715.73 559.433 716.33 556.713 716.33ZM575.768 728.87C573.928 728.87 572.008 728.43 570.008 727.55L571.268 720.59C572.788 721.35 574.068 721.73 575.108 721.73C576.348 721.73 577.268 721.33 577.868 720.53C578.508 719.73 579.188 718.33 579.908 716.33L567.848 684.65L576.608 683.93L583.988 706.07L590.828 684.53H599.168C596.608 692.29 593.908 699.93 591.068 707.45C588.268 714.97 586.088 720.13 584.528 722.93C583.408 724.93 582.148 726.41 580.748 727.37C579.388 728.37 577.728 728.87 575.768 728.87ZM630.319 716.33C625.199 716.33 621.219 714.97 618.379 712.25C615.579 709.53 614.179 705.69 614.179 700.73C614.179 697.37 614.839 694.41 616.159 691.85C617.479 689.25 619.339 687.25 621.739 685.85C624.139 684.41 626.919 683.69 630.079 683.69C631.559 683.69 633.099 683.87 634.699 684.23C636.339 684.55 637.599 684.93 638.479 685.37L636.859 692.51C635.939 692.07 634.919 691.73 633.799 691.49C632.719 691.21 631.699 691.07 630.739 691.07C628.259 691.07 626.259 691.91 624.739 693.59C623.259 695.27 622.519 697.49 622.519 700.25C622.519 703.05 623.279 705.21 624.799 706.73C626.359 708.25 628.559 709.01 631.399 709.01C633.279 709.01 635.299 708.65 637.459 707.93L638.719 714.77C636.119 715.81 633.319 716.33 630.319 716.33ZM658.735 716.33C655.615 716.33 652.855 715.65 650.455 714.29C648.095 712.93 646.255 711.03 644.935 708.59C643.615 706.11 642.955 703.25 642.955 700.01C642.955 696.77 643.595 693.93 644.875 691.49C646.195 689.01 648.035 687.09 650.395 685.73C652.795 684.37 655.555 683.69 658.675 683.69C661.795 683.69 664.535 684.37 666.895 685.73C669.295 687.05 671.135 688.93 672.415 691.37C673.735 693.81 674.395 696.63 674.395 699.83C674.395 703.07 673.735 705.95 672.415 708.47C671.135 710.95 669.295 712.89 666.895 714.29C664.535 715.65 661.815 716.33 658.735 716.33ZM658.675 709.01C660.835 709.01 662.555 708.19 663.835 706.55C665.155 704.87 665.815 702.67 665.815 699.95C665.815 697.23 665.155 695.07 663.835 693.47C662.555 691.83 660.835 691.01 658.675 691.01C656.515 691.01 654.775 691.83 653.455 693.47C652.175 695.07 651.535 697.23 651.535 699.95C651.535 702.67 652.175 704.87 653.455 706.55C654.775 708.19 656.515 709.01 658.675 709.01ZM680.666 684.53H688.946V689.87C690.226 687.75 691.706 686.19 693.386 685.19C695.066 684.19 697.026 683.69 699.266 683.69C702.586 683.69 705.186 684.69 707.066 686.69C708.946 688.65 709.886 691.39 709.886 694.91V715.43H701.426V696.23C701.426 694.63 701.026 693.39 700.226 692.51C699.426 691.59 698.346 691.13 696.986 691.13C695.386 691.13 693.866 691.73 692.426 692.93C690.986 694.13 689.886 695.65 689.126 697.49V715.43H680.666V684.53ZM728.158 716.33C725.278 716.33 723.038 715.61 721.438 714.17C719.878 712.69 719.098 710.61 719.098 707.93V691.79H714.298V684.53H719.098V677.93C721.938 677.45 724.738 677.09 727.498 676.85V684.53H735.298V691.79H727.498V706.37C727.498 707.21 727.738 707.85 728.218 708.29C728.738 708.73 729.458 708.95 730.378 708.95C731.498 708.95 732.778 708.69 734.218 708.17L736.078 714.53C733.518 715.73 730.878 716.33 728.158 716.33ZM755.187 716.33C750.187 716.33 746.247 714.89 743.367 712.01C740.527 709.13 739.107 705.13 739.107 700.01C739.107 696.69 739.727 693.81 740.967 691.37C742.207 688.89 743.947 686.99 746.187 685.67C748.467 684.35 751.127 683.69 754.167 683.69C758.647 683.69 762.087 685.13 764.487 688.01C766.887 690.89 768.087 695.05 768.087 700.49C768.087 701.41 768.067 702.09 768.027 702.53H747.627C748.027 704.65 748.947 706.27 750.387 707.39C751.827 708.47 753.767 709.01 756.207 709.01C757.687 709.01 759.227 708.83 760.827 708.47C762.427 708.07 763.827 707.55 765.027 706.91L766.407 713.69C764.807 714.53 763.027 715.17 761.067 715.61C759.147 716.09 757.187 716.33 755.187 716.33ZM759.987 696.17C759.867 694.45 759.267 693.09 758.187 692.09C757.107 691.05 755.667 690.53 753.867 690.53C752.147 690.53 750.727 691.03 749.607 692.03C748.527 693.03 747.847 694.41 747.567 696.17H759.987ZM774.416 684.53H782.696V689.87C783.976 687.75 785.456 686.19 787.136 685.19C788.816 684.19 790.776 683.69 793.016 683.69C796.336 683.69 798.936 684.69 800.816 686.69C802.696 688.65 803.636 691.39 803.636 694.91V715.43H795.176V696.23C795.176 694.63 794.776 693.39 793.976 692.51C793.176 691.59 792.096 691.13 790.736 691.13C789.136 691.13 787.616 691.73 786.176 692.93C784.736 694.13 783.636 695.65 782.876 697.49V715.43H774.416V684.53ZM821.908 716.33C819.028 716.33 816.788 715.61 815.188 714.17C813.628 712.69 812.848 710.61 812.848 707.93V691.79H808.048V684.53H812.848V677.93C815.688 677.45 818.488 677.09 821.248 676.85V684.53H829.048V691.79H821.248V706.37C821.248 707.21 821.488 707.85 821.968 708.29C822.488 708.73 823.208 708.95 824.128 708.95C825.248 708.95 826.528 708.69 827.968 708.17L829.828 714.53C827.268 715.73 824.628 716.33 821.908 716.33ZM859.173 716.33C856.293 716.33 854.053 715.61 852.453 714.17C850.893 712.69 850.113 710.61 850.113 707.93V691.79H845.313V684.53H850.113V677.93C852.953 677.45 855.753 677.09 858.513 676.85V684.53H866.313V691.79H858.513V706.37C858.513 707.21 858.753 707.85 859.233 708.29C859.753 708.73 860.473 708.95 861.393 708.95C862.513 708.95 863.793 708.69 865.233 708.17L867.093 714.53C864.533 715.73 861.893 716.33 859.173 716.33ZM885.903 716.33C882.783 716.33 880.023 715.65 877.623 714.29C875.263 712.93 873.423 711.03 872.103 708.59C870.783 706.11 870.123 703.25 870.123 700.01C870.123 696.77 870.763 693.93 872.043 691.49C873.363 689.01 875.203 687.09 877.563 685.73C879.963 684.37 882.723 683.69 885.843 683.69C888.963 683.69 891.703 684.37 894.063 685.73C896.463 687.05 898.303 688.93 899.583 691.37C900.903 693.81 901.563 696.63 901.563 699.83C901.563 703.07 900.903 705.95 899.583 708.47C898.303 710.95 896.463 712.89 894.063 714.29C891.703 715.65 888.983 716.33 885.903 716.33ZM885.843 709.01C888.003 709.01 889.723 708.19 891.003 706.55C892.323 704.87 892.983 702.67 892.983 699.95C892.983 697.23 892.323 695.07 891.003 693.47C889.723 691.83 888.003 691.01 885.843 691.01C883.683 691.01 881.943 691.83 880.623 693.47C879.343 695.07 878.703 697.23 878.703 699.95C878.703 702.67 879.343 704.87 880.623 706.55C881.943 708.19 883.683 709.01 885.843 709.01ZM934.425 716.33C929.425 716.33 925.485 714.89 922.605 712.01C919.765 709.13 918.345 705.13 918.345 700.01C918.345 696.69 918.965 693.81 920.205 691.37C921.445 688.89 923.185 686.99 925.425 685.67C927.705 684.35 930.365 683.69 933.405 683.69C937.885 683.69 941.325 685.13 943.725 688.01C946.125 690.89 947.325 695.05 947.325 700.49C947.325 701.41 947.305 702.09 947.265 702.53H926.865C927.265 704.65 928.185 706.27 929.625 707.39C931.065 708.47 933.005 709.01 935.445 709.01C936.925 709.01 938.465 708.83 940.065 708.47C941.665 708.07 943.065 707.55 944.265 706.91L945.645 713.69C944.045 714.53 942.265 715.17 940.305 715.61C938.385 716.09 936.425 716.33 934.425 716.33ZM939.225 696.17C939.105 694.45 938.505 693.09 937.425 692.09C936.345 691.05 934.905 690.53 933.105 690.53C931.385 690.53 929.965 691.03 928.845 692.03C927.765 693.03 927.085 694.41 926.805 696.17H939.225ZM950.054 684.65L959.294 683.81L966.134 706.07L972.674 684.53H981.734L970.874 715.43H960.974L950.054 684.65ZM1000.17 716.33C995.167 716.33 991.227 714.89 988.347 712.01C985.507 709.13 984.087 705.13 984.087 700.01C984.087 696.69 984.707 693.81 985.947 691.37C987.187 688.89 988.927 686.99 991.167 685.67C993.447 684.35 996.107 683.69 999.147 683.69C1003.63 683.69 1007.07 685.13 1009.47 688.01C1011.87 690.89 1013.07 695.05 1013.07 700.49C1013.07 701.41 1013.05 702.09 1013.01 702.53H992.607C993.007 704.65 993.927 706.27 995.367 707.39C996.807 708.47 998.747 709.01 1001.19 709.01C1002.67 709.01 1004.21 708.83 1005.81 708.47C1007.41 708.07 1008.81 707.55 1010.01 706.91L1011.39 713.69C1009.79 714.53 1008.01 715.17 1006.05 715.61C1004.13 716.09 1002.17 716.33 1000.17 716.33ZM1004.97 696.17C1004.85 694.45 1004.25 693.09 1003.17 692.09C1002.09 691.05 1000.65 690.53 998.847 690.53C997.127 690.53 995.707 691.03 994.587 692.03C993.507 693.03 992.827 694.41 992.547 696.17H1004.97ZM1019.58 684.53H1028.04V689.57H1028.52C1029.68 687.53 1030.82 686.03 1031.94 685.07C1033.1 684.11 1034.54 683.63 1036.26 683.63C1036.98 683.63 1037.58 683.71 1038.06 683.87L1037.16 692.99C1036.12 692.71 1035.28 692.57 1034.64 692.57C1033.72 692.57 1032.9 692.75 1032.18 693.11C1031.5 693.47 1030.88 693.95 1030.32 694.55C1029.8 695.15 1029.04 696.07 1028.04 697.31V715.43H1019.58V684.53ZM1048.91 728.87C1047.07 728.87 1045.15 728.43 1043.15 727.55L1044.41 720.59C1045.93 721.35 1047.21 721.73 1048.25 721.73C1049.49 721.73 1050.41 721.33 1051.01 720.53C1051.65 719.73 1052.33 718.33 1053.05 716.33L1040.99 684.65L1049.75 683.93L1057.13 706.07L1063.97 684.53H1072.31C1069.75 692.29 1067.05 699.93 1064.21 707.45C1061.41 714.97 1059.23 720.13 1057.67 722.93C1056.55 724.93 1055.29 726.41 1053.89 727.37C1052.53 728.37 1050.87 728.87 1048.91 728.87ZM1090.45 716.33C1087.33 716.33 1084.57 715.65 1082.17 714.29C1079.81 712.93 1077.97 711.03 1076.65 708.59C1075.33 706.11 1074.67 703.25 1074.67 700.01C1074.67 696.77 1075.31 693.93 1076.59 691.49C1077.91 689.01 1079.75 687.09 1082.11 685.73C1084.51 684.37 1087.27 683.69 1090.39 683.69C1093.51 683.69 1096.25 684.37 1098.61 685.73C1101.01 687.05 1102.85 688.93 1104.13 691.37C1105.45 693.81 1106.11 696.63 1106.11 699.83C1106.11 703.07 1105.45 705.95 1104.13 708.47C1102.85 710.95 1101.01 712.89 1098.61 714.29C1096.25 715.65 1093.53 716.33 1090.45 716.33ZM1090.39 709.01C1092.55 709.01 1094.27 708.19 1095.55 706.55C1096.87 704.87 1097.53 702.67 1097.53 699.95C1097.53 697.23 1096.87 695.07 1095.55 693.47C1094.27 691.83 1092.55 691.01 1090.39 691.01C1088.23 691.01 1086.49 691.83 1085.17 693.47C1083.89 695.07 1083.25 697.23 1083.25 699.95C1083.25 702.67 1083.89 704.87 1085.17 706.55C1086.49 708.19 1088.23 709.01 1090.39 709.01ZM1112.38 684.53H1120.66V689.87C1121.94 687.75 1123.42 686.19 1125.1 685.19C1126.78 684.19 1128.74 683.69 1130.98 683.69C1134.3 683.69 1136.9 684.69 1138.78 686.69C1140.66 688.65 1141.6 691.39 1141.6 694.91V715.43H1133.14V696.23C1133.14 694.63 1132.74 693.39 1131.94 692.51C1131.14 691.59 1130.06 691.13 1128.7 691.13C1127.1 691.13 1125.58 691.73 1124.14 692.93C1122.7 694.13 1121.6 695.65 1120.84 697.49V715.43H1112.38V684.53ZM1164 716.33C1159 716.33 1155.06 714.89 1152.18 712.01C1149.34 709.13 1147.92 705.13 1147.92 700.01C1147.92 696.69 1148.54 693.81 1149.78 691.37C1151.02 688.89 1152.76 686.99 1155 685.67C1157.28 684.35 1159.94 683.69 1162.98 683.69C1167.46 683.69 1170.9 685.13 1173.3 688.01C1175.7 690.89 1176.9 695.05 1176.9 700.49C1176.9 701.41 1176.88 702.09 1176.84 702.53H1156.44C1156.84 704.65 1157.76 706.27 1159.2 707.39C1160.64 708.47 1162.58 709.01 1165.02 709.01C1166.5 709.01 1168.04 708.83 1169.64 708.47C1171.24 708.07 1172.64 707.55 1173.84 706.91L1175.22 713.69C1173.62 714.53 1171.84 715.17 1169.88 715.61C1167.96 716.09 1166 716.33 1164 716.33ZM1168.8 696.17C1168.68 694.45 1168.08 693.09 1167 692.09C1165.92 691.05 1164.48 690.53 1162.68 690.53C1160.96 690.53 1159.54 691.03 1158.42 692.03C1157.34 693.03 1156.66 694.41 1156.38 696.17H1168.8Z" fill="black"/>
</g>
<defs>
<clipPath id="clip0_2_40">
<rect width="1680" height="747" fill="white"/>
</clipPath>
<clipPath id="clip1_2_40">
<rect x="775" y="18" width="128" height="128" rx="17" fill="white"/>
</clipPath>
</defs>
</svg>
